<svg width="501" height="66" viewBox="0 0 501 66" fill="none" xmlns="http://www.w3.org/2000/svg">
<path d="M403.895 34.7023C403.336 35.002 402.908 35.2213 401.279 35.9935C401.106 32.3958 400.376 29.4043 399.087 27.0191C397.599 24.205 395.368 22.1393 392.393 20.822C389.477 19.4449 385.728 18.7563 381.146 18.7563C379.063 18.7563 376.772 18.9659 374.273 19.385C371.833 19.8042 369.215 20.5825 366.418 21.7202C365.049 22.1992 364.067 22.9476 363.472 23.9655C362.877 24.9235 362.58 25.9413 362.58 27.0191C362.58 28.037 362.847 28.995 363.383 29.8931C363.918 30.7313 364.692 31.3301 365.704 31.6893C366.715 31.9887 367.876 31.839 369.185 31.2403C371.446 30.3421 373.499 29.7135 375.344 29.3542C377.248 28.9351 379.003 28.7255 380.61 28.7255C383.467 28.7255 385.49 29.2943 386.68 30.432C387.87 31.5097 388.465 33.3658 388.465 36.0003V37.5271H385.252C379.063 37.5271 374.094 37.9463 370.345 38.7845C366.596 39.5629 363.889 40.9101 362.222 42.8261C360.556 44.6822 359.723 47.2269 359.723 50.4601C359.723 53.1545 360.437 55.5794 361.865 57.7349C363.294 59.8904 365.287 61.5968 367.846 62.8542C370.405 64.1116 373.291 64.7403 376.504 64.7403C378.825 64.7403 380.878 64.3511 382.663 63.5727C384.448 62.7345 385.906 61.5968 387.037 60.1598C387.753 59.2592 388.318 58.2609 388.733 57.1651V57.6451C388.733 59.8605 389.268 61.5669 390.34 62.7644C391.47 63.9619 393.047 64.5606 395.07 64.5606C397.094 64.5606 398.641 63.9619 399.712 62.7644C400.783 61.5669 401.319 59.8605 401.319 57.6451V44.6416C397.71 45.6672 393.46 46.3542 388.463 46.5691C388.43 48.2695 388.044 49.806 387.305 51.1786C386.531 52.5557 385.46 53.6634 384.091 54.5017C382.782 55.28 381.265 55.6692 379.539 55.6692C377.337 55.6692 375.641 55.1304 374.451 54.0526C373.321 52.9749 372.755 51.5977 372.755 49.9212C372.755 48.5441 373.142 47.4664 373.916 46.688C374.749 45.9096 376.088 45.3707 377.932 45.0714C379.837 44.7121 382.306 44.5325 385.341 44.5325H388.461C401.59 43.9528 409.07 40.0363 413.295 35.6515C417.712 31.0664 418.705 25.831 418.732 22.9462C418.45 22.0623 418.015 21.3243 417.426 20.7322C416.296 19.5347 414.659 18.936 412.517 18.936C410.434 18.936 408.798 19.5347 407.608 20.7322C406.646 21.6993 406.094 23.0557 405.95 24.8016C405.988 25.4226 406.069 26.0453 406.215 26.6627C406.607 28.3294 406.964 29.4469 407.217 30.2359L407.23 30.2756C407.352 30.6582 407.464 31.0063 407.533 31.2965C407.6 31.5751 407.665 31.9396 407.59 32.3148C407.5 32.7597 407.246 33.0744 406.952 33.294C406.702 33.4809 406.397 33.6178 406.13 33.7307C405.996 33.7874 405.853 33.8458 405.697 33.9092C405.229 34.0995 404.651 34.3347 403.895 34.7023Z" fill="#FFCB77"/>
<path d="M414.76 37.0634C419.148 32.5088 420.484 27.3555 420.725 23.9881C421.727 22.8849 422.889 21.9493 424.21 21.1813C426.947 19.5647 430.042 18.7563 433.493 18.7563C437.004 18.7563 439.89 19.4449 442.151 20.822C444.413 22.1393 446.109 24.175 447.239 26.9293C448.37 29.6236 448.935 33.0664 448.935 37.2577V57.6451C448.935 59.8605 448.34 61.5669 447.15 62.7644C446.019 63.9619 444.353 64.5606 442.151 64.5606C440.009 64.5606 438.343 63.9619 437.153 62.7644C436.022 61.5669 435.457 59.8605 435.457 57.6451V37.8864C435.457 34.8328 434.892 32.6473 433.761 31.3301C432.69 29.953 431.024 29.2644 428.762 29.2644C425.906 29.2644 423.615 30.1625 421.889 31.9588C420.223 33.755 419.39 36.15 419.39 39.1438V57.6451C419.39 62.2555 417.158 64.5606 412.695 64.5606C410.494 64.5606 408.798 63.9619 407.608 62.7644C406.477 61.5669 405.912 59.8605 405.912 57.6451V43.0204C409.717 41.3816 412.596 39.3087 414.76 37.0634Z" fill="#FFCB77"/>
<path d="M473.816 65.557C470.007 65.557 466.645 64.6289 463.729 62.7728C460.873 60.9166 458.641 58.2522 457.035 54.7795C455.428 51.3067 454.625 47.2053 454.625 42.4752C454.625 37.7451 455.428 33.6736 457.035 30.2607C458.641 26.8478 460.873 24.2133 463.729 22.3572C466.645 20.5011 470.007 19.573 473.816 19.573C477.267 19.573 480.302 20.4113 482.92 22.0878C485.598 23.7643 487.413 25.9497 488.365 28.6441H487.383V7.35855C487.383 5.0833 487.949 3.37687 489.079 2.23924C490.21 1.04174 491.876 0.442993 494.078 0.442993C496.22 0.442993 497.886 1.04174 499.076 2.23924C500.267 3.37687 500.862 5.0833 500.862 7.35855V58.4618C500.862 60.6771 500.267 62.3836 499.076 63.5811C497.946 64.7786 496.309 65.3773 494.167 65.3773C492.025 65.3773 490.359 64.7786 489.168 63.5811C488.038 62.3836 487.472 60.6771 487.472 58.4618V52.3545L488.454 55.8572C487.621 58.7911 485.836 61.1561 483.099 62.9524C480.421 64.6888 477.326 65.557 473.816 65.557ZM477.832 55.4082C479.796 55.4082 481.492 54.9292 482.92 53.9712C484.348 53.0132 485.479 51.6061 486.312 49.75C487.145 47.834 487.562 45.409 487.562 42.4752C487.562 38.1043 486.669 34.901 484.884 32.8653C483.099 30.7696 480.748 29.7218 477.832 29.7218C475.928 29.7218 474.232 30.1709 472.744 31.069C471.316 31.9671 470.186 33.3742 469.353 35.2902C468.579 37.1463 468.192 39.5413 468.192 42.4752C468.192 46.846 469.085 50.1092 470.87 52.2647C472.655 54.3603 474.976 55.4082 477.832 55.4082Z" fill="#FFCB77"/>
<path d="M331.996 64.5818C329.734 64.5818 328.009 63.983 326.819 62.7855C325.629 61.588 325.033 59.8816 325.033 57.6662V25.7828C325.033 23.5675 325.599 21.891 326.729 20.7534C327.92 19.5559 329.556 18.9571 331.639 18.9571C333.781 18.9571 335.417 19.5559 336.548 20.7534C337.679 21.891 338.244 23.5675 338.244 25.7828V30.4531H337.351C338.066 26.8606 339.642 24.0764 342.082 22.1005C344.522 20.1247 347.676 19.017 351.544 18.7775C353.032 18.6577 354.162 19.0469 354.936 19.945C355.769 20.7833 356.215 22.1903 356.275 24.1662C356.394 26.0223 356.007 27.4893 355.114 28.567C354.281 29.6448 352.853 30.3034 350.83 30.5429L348.777 30.7225C345.385 31.0219 342.856 32.0098 341.19 33.6863C339.583 35.3628 338.78 37.7878 338.78 40.9611V57.6662C338.78 59.8816 338.185 61.588 336.994 62.7855C335.864 63.983 334.198 64.5818 331.996 64.5818Z" fill="#FFCB77"/>
<path d="M299.738 65.557C296.227 65.557 293.103 64.6888 290.365 62.9524C287.687 61.1561 285.902 58.7911 285.01 55.8572L285.991 52.8934V58.4618C285.991 60.6771 285.426 62.3836 284.296 63.5811C283.165 64.7786 281.528 65.3773 279.386 65.3773C277.244 65.3773 275.578 64.7786 274.388 63.5811C273.257 62.3836 272.692 60.6771 272.692 58.4618V7.35855C272.692 5.0833 273.257 3.37687 274.388 2.23924C275.578 1.04174 277.274 0.442993 279.475 0.442993C281.618 0.442993 283.254 1.04174 284.385 2.23924C285.575 3.37687 286.17 5.0833 286.17 7.35855V28.6441H285.099C286.051 25.9497 287.866 23.7643 290.544 22.0878C293.222 20.4113 296.286 19.573 299.738 19.573C303.606 19.573 306.968 20.5011 309.824 22.3572C312.68 24.2133 314.912 26.8478 316.519 30.2607C318.125 33.6736 318.929 37.7451 318.929 42.4752C318.929 47.2053 318.125 51.3067 316.519 54.7795C314.912 58.2522 312.651 60.9166 309.735 62.7728C306.878 64.6289 303.546 65.557 299.738 65.557ZM295.721 55.4082C297.625 55.4082 299.291 54.9292 300.72 53.9712C302.207 53.0132 303.338 51.6061 304.111 49.75C304.945 47.834 305.361 45.409 305.361 42.4752C305.361 38.1043 304.468 34.901 302.683 32.8653C300.898 30.7696 298.577 29.7218 295.721 29.7218C293.817 29.7218 292.121 30.1709 290.633 31.069C289.205 31.9671 288.074 33.3742 287.241 35.2902C286.408 37.1463 285.991 39.5413 285.991 42.4752C285.991 46.846 286.884 50.1092 288.669 52.2647C290.455 54.3603 292.805 55.4082 295.721 55.4082Z" fill="#FFCB77"/>
<path d="M230.347 64.5606C228.145 64.5606 226.449 63.9619 225.259 62.7644C224.128 61.5669 223.563 59.8605 223.563 57.6451V25.7617C223.563 23.5463 224.128 21.8698 225.259 20.7322C226.449 19.5347 228.086 18.936 230.168 18.936C232.311 18.936 233.947 19.5347 235.078 20.7322C236.208 21.8698 236.774 23.5463 236.774 25.7617V30.881L235.792 27.9172C237.16 24.9833 239.184 22.738 241.862 21.1813C244.599 19.5647 247.693 18.7563 251.145 18.7563C254.656 18.7563 257.542 19.4449 259.803 20.822C262.064 22.1393 263.76 24.175 264.891 26.9293C266.021 29.6236 266.587 33.0664 266.587 37.2577V57.6451C266.587 59.8605 265.992 61.5669 264.802 62.7644C263.671 63.9619 262.005 64.5606 259.803 64.5606C257.661 64.5606 255.995 63.9619 254.804 62.7644C253.674 61.5669 253.108 59.8605 253.108 57.6451V37.8864C253.108 34.8328 252.543 32.6473 251.412 31.3301C250.341 29.953 248.675 29.2644 246.414 29.2644C243.558 29.2644 241.266 30.1625 239.541 31.9588C237.875 33.755 237.041 36.15 237.041 39.1438V57.6451C237.041 62.2555 234.81 64.5606 230.347 64.5606Z" fill="#FFCB77"/>
<path d="M194.162 64.7403C189.461 64.7403 185.355 63.8122 181.844 61.9561C178.392 60.1 175.715 57.4355 173.81 53.9628C171.906 50.49 170.954 46.3886 170.954 41.6585C170.954 38.1259 171.49 34.9525 172.561 32.1384C173.632 29.3243 175.179 26.9293 177.202 24.9534C179.285 22.9177 181.755 21.3908 184.611 20.373C187.467 19.2952 190.651 18.7563 194.162 18.7563C198.863 18.7563 202.939 19.6844 206.391 21.5405C209.902 23.3967 212.609 26.0312 214.513 29.444C216.477 32.8569 217.459 36.9284 217.459 41.6585C217.459 45.251 216.894 48.4543 215.763 51.2684C214.692 54.0825 213.145 56.5075 211.121 58.5432C209.098 60.579 206.629 62.1357 203.713 63.2135C200.856 64.2313 197.673 64.7403 194.162 64.7403ZM194.162 54.5915C196.126 54.5915 197.822 54.1125 199.25 53.1545C200.678 52.1965 201.809 50.7894 202.642 48.9333C203.475 47.0173 203.891 44.5924 203.891 41.6585C203.891 37.2876 202.999 34.0843 201.213 32.0486C199.428 29.953 197.078 28.9051 194.162 28.9051C192.258 28.9051 190.562 29.3542 189.074 30.2523C187.646 31.1505 186.515 32.5575 185.682 34.4735C184.909 36.3296 184.522 38.7246 184.522 41.6585C184.522 46.0294 185.414 49.2926 187.2 51.448C188.985 53.5437 191.306 54.5915 194.162 54.5915Z" fill="#FFCB77"/>
<path d="M102.814 64.5606C100.612 64.5606 98.9159 63.9619 97.7257 62.7644C96.5951 61.5669 96.0298 59.8605 96.0298 57.6451V25.7617C96.0298 23.5463 96.5951 21.8698 97.7257 20.7322C98.9159 19.5347 100.552 18.936 102.635 18.936C104.777 18.936 106.414 19.5347 107.544 20.7322C108.675 21.8698 109.24 23.5463 109.24 25.7617V31.5097L108.259 27.9172C109.449 25.163 111.293 22.9476 113.793 21.2711C116.292 19.5946 119.238 18.7563 122.629 18.7563C126.021 18.7563 128.848 19.5647 131.109 21.1813C133.371 22.7979 134.977 25.2827 135.929 28.6357H134.68C135.989 25.5821 137.982 23.1871 140.66 21.4507C143.397 19.6545 146.522 18.7563 150.033 18.7563C153.424 18.7563 156.192 19.4449 158.334 20.822C160.536 22.1393 162.172 24.175 163.243 26.9293C164.314 29.6236 164.85 33.0664 164.85 37.2577V57.6451C164.85 59.8605 164.255 61.5669 163.065 62.7644C161.934 63.9619 160.298 64.5606 158.155 64.5606C155.954 64.5606 154.258 63.9619 153.067 62.7644C151.937 61.5669 151.371 59.8605 151.371 57.6451V37.7068C151.371 34.7729 150.895 32.6473 149.943 31.3301C149.051 29.953 147.503 29.2644 145.302 29.2644C142.743 29.2644 140.749 30.1625 139.321 31.9588C137.893 33.755 137.179 36.2997 137.179 39.5928V57.6451C137.179 59.8605 136.584 61.5669 135.394 62.7644C134.263 63.9619 132.627 64.5606 130.484 64.5606C128.342 64.5606 126.676 63.9619 125.486 62.7644C124.296 61.5669 123.701 59.8605 123.701 57.6451V37.7068C123.701 34.7729 123.225 32.6473 122.272 31.3301C121.38 29.953 119.833 29.2644 117.631 29.2644C115.072 29.2644 113.079 30.1625 111.65 31.9588C110.222 33.755 109.508 36.2997 109.508 39.5928V57.6451C109.508 62.2555 107.277 64.5606 102.814 64.5606Z" fill="#FFCB77"/>
<path d="M71.5377 64.7403C66.3605 64.7403 61.8975 63.8122 58.1485 61.9561C54.4591 60.0401 51.6028 57.3757 49.5795 53.9628C47.6158 50.49 46.6339 46.4186 46.6339 41.7483C46.6339 37.1978 47.586 33.2161 49.4903 29.8033C51.3945 26.3305 54.0426 23.6362 57.4345 21.7202C60.8859 19.7443 64.7836 18.7563 69.1276 18.7563C72.2815 18.7563 75.1378 19.2952 77.6966 20.373C80.2555 21.3908 82.4572 22.8877 84.3019 24.8636C86.1467 26.7796 87.5451 29.1446 88.4972 31.9588C89.4493 34.713 89.9254 37.7966 89.9254 41.2094C89.9254 42.3471 89.5683 43.2152 88.8542 43.814C88.1401 44.3529 87.0988 44.6223 85.7301 44.6223H57.7022V37.6169H80.1959L78.7678 38.8743C78.7678 36.4194 78.4107 34.3837 77.6966 32.7671C76.9826 31.0906 75.9412 29.8332 74.5725 28.995C73.2634 28.1567 71.6269 27.7376 69.6632 27.7376C67.4614 27.7376 65.5869 28.2465 64.0398 29.2644C62.4926 30.2823 61.3024 31.7492 60.4693 33.6652C59.6362 35.5812 59.2197 37.8864 59.2197 40.5808V41.2993C59.2197 45.8497 60.2611 49.2027 62.3438 51.3582C64.4861 53.5137 67.6399 54.5915 71.8054 54.5915C73.2336 54.5915 74.8701 54.4119 76.7148 54.0526C78.5595 53.6934 80.2852 53.1245 81.8919 52.3462C83.2606 51.6875 84.4805 51.478 85.5516 51.7175C86.6227 51.8971 87.4558 52.3761 88.0509 53.1545C88.646 53.9329 88.9733 54.831 89.0328 55.8489C89.1518 56.8667 88.9435 57.8846 88.4079 58.9025C87.8724 59.8605 86.9798 60.6688 85.7301 61.3274C83.7069 62.465 81.4158 63.3033 78.857 63.8421C76.3577 64.4409 73.9179 64.7403 71.5377 64.7403Z" fill="#FFCB77"/>
<path d="M7.91317 63.9403C5.6519 63.9403 3.89644 63.3116 2.64679 62.0543C1.45664 60.7969 0.861572 59.0605 0.861572 56.8451V7.53817C0.861572 5.20305 1.45664 3.43674 2.64679 2.23924C3.83693 1.04174 5.56264 0.442993 7.82391 0.442993C10.0257 0.442993 11.7216 1.04174 12.9118 2.23924C14.1019 3.43674 14.697 5.20305 14.697 7.53817V52.1749H38.6189C40.5231 52.1749 41.981 52.6838 42.9926 53.7017C44.0638 54.7196 44.5993 56.1566 44.5993 58.0127C44.5993 59.9287 44.0638 61.3956 42.9926 62.4135C41.981 63.4314 40.5231 63.9403 38.6189 63.9403H7.91317Z" fill="#FFCB77"/>
</svg>
