<svg width="256" height="256" viewBox="0 0 256 256" fill="none" xmlns="http://www.w3.org/2000/svg">
<g clip-path="url(#clip0_606_919)">
<path d="M84.1833 41.8891C79.895 37.6008 72.9091 37.5534 69.0895 42.229C53.2039 61.6746 44.4478 86.1339 44.5055 111.522C44.5716 140.579 56.1778 168.472 76.771 189.065C97.3641 209.658 125.257 221.265 154.314 221.331C179.702 221.388 204.162 212.632 223.607 196.747C228.283 192.927 228.235 185.941 223.947 181.653C219.659 177.365 212.758 177.412 207.988 181.113C192.72 192.959 173.837 199.463 154.264 199.419C131.019 199.366 108.704 190.081 92.2298 173.606C75.7553 157.132 66.4703 134.817 66.4175 111.572C66.373 91.9989 72.8768 73.116 84.7228 57.8478C88.4238 53.0777 88.4716 46.1774 84.1833 41.8891Z" fill="#FFCB77"/>
<path d="M161.342 186.139C153.214 188.317 145.776 180.879 147.954 172.751L156.431 141.113C158.609 132.985 168.769 130.262 174.719 136.213L197.88 159.373C203.83 165.323 201.108 175.483 192.98 177.661L161.342 186.139Z" fill="#FFCB77"/>
<path d="M94.4052 119.202C86.2772 121.38 78.8396 113.942 81.0175 105.814L89.4949 74.1758C91.6728 66.0478 101.833 63.3254 107.783 69.2755L130.944 92.4363C136.894 98.3864 134.171 108.546 126.043 110.724L94.4052 119.202Z" fill="#FFCB77"/>
<path d="M131.067 171.555C128.889 179.683 118.729 182.405 112.779 176.455L89.6183 153.295C83.6682 147.344 86.3905 137.184 94.5185 135.007L126.157 126.529C134.285 124.351 141.722 131.789 139.545 139.917L131.067 171.555Z" fill="#FFCB77"/>
</g>
<defs>
<clipPath id="clip0_606_919">
<rect width="256" height="256" fill="white"/>
</clipPath>
</defs>
</svg>
