<svg width="335" height="91" viewBox="0 0 335 91" fill="none" xmlns="http://www.w3.org/2000/svg">
<path d="M334.185 2.39111V59.3874H321.272L300.678 29.4421H300.344V59.3874H284.87V2.39111H298.006L318.266 32.2251H318.712V2.39111H334.185Z" fill="white"/>
<path d="M269.873 30.8892C269.873 37.2345 268.64 42.5872 266.172 46.9472C263.704 51.2888 260.374 54.582 256.181 56.827C251.988 59.0534 247.312 60.1666 242.155 60.1666C236.96 60.1666 232.266 59.0441 228.072 56.7991C223.898 54.5356 220.577 51.2331 218.109 46.8916C215.66 42.5315 214.436 37.1974 214.436 30.8892C214.436 24.5439 215.66 19.2005 218.109 14.859C220.577 10.4989 223.898 7.20569 228.072 4.97927C232.266 2.7343 236.96 1.61182 242.155 1.61182C247.312 1.61182 251.988 2.7343 256.181 4.97927C260.374 7.20569 263.704 10.4989 266.172 14.859C268.64 19.2005 269.873 24.5439 269.873 30.8892ZM253.955 30.8892C253.955 27.4754 253.5 24.5996 252.591 22.2618C251.7 19.9055 250.374 18.1244 248.611 16.9184C246.867 15.6939 244.715 15.0816 242.155 15.0816C239.594 15.0816 237.433 15.6939 235.67 16.9184C233.926 18.1244 232.6 19.9055 231.69 22.2618C230.8 24.5996 230.355 27.4754 230.355 30.8892C230.355 34.303 230.8 37.1881 231.69 39.5444C232.6 41.8821 233.926 43.6633 235.67 44.8878C237.433 46.0938 239.594 46.6968 242.155 46.6968C244.715 46.6968 246.867 46.0938 248.611 44.8878C250.374 43.6633 251.7 41.8821 252.591 39.5444C253.5 37.1881 253.955 34.303 253.955 30.8892Z" fill="white"/>
<path d="M185.35 20.2024C185.202 18.3471 184.506 16.8999 183.263 15.8609C182.039 14.8219 180.174 14.3024 177.669 14.3024C176.074 14.3024 174.766 14.4972 173.745 14.8868C172.743 15.2579 172.001 15.7681 171.519 16.4175C171.036 17.0669 170.786 17.809 170.767 18.6439C170.73 19.3304 170.851 19.9519 171.129 20.5085C171.426 21.0466 171.89 21.5383 172.521 21.9835C173.151 22.4103 173.958 22.7999 174.942 23.1524C175.925 23.5049 177.094 23.8203 178.448 24.0986L183.124 25.1005C186.278 25.7684 188.978 26.6497 191.223 27.7444C193.467 28.8391 195.304 30.1285 196.733 31.6128C198.162 33.0785 199.21 34.7298 199.878 36.5666C200.564 38.4034 200.917 40.4071 200.935 42.5779C200.917 46.3257 199.98 49.4984 198.124 52.0958C196.269 54.6933 193.616 56.6693 190.165 58.0237C186.733 59.3781 182.604 60.0553 177.781 60.0553C172.827 60.0553 168.504 59.3224 164.812 57.8567C161.138 56.391 158.281 54.1367 156.24 51.094C154.218 48.0326 153.197 44.1178 153.179 39.3496H167.873C167.966 41.0936 168.402 42.5593 169.181 43.7468C169.96 44.9342 171.055 45.834 172.465 46.4463C173.894 47.0586 175.591 47.3647 177.558 47.3647C179.209 47.3647 180.591 47.1606 181.705 46.7524C182.818 46.3443 183.662 45.7784 184.237 45.0548C184.812 44.3312 185.109 43.5056 185.128 42.5779C185.109 41.7059 184.822 40.9452 184.265 40.2958C183.727 39.6279 182.836 39.0342 181.593 38.5147C180.35 37.9766 178.671 37.4757 176.556 37.0119L170.879 35.7873C165.832 34.6927 161.852 32.8652 158.939 30.3048C156.045 27.7258 154.607 24.21 154.626 19.7571C154.607 16.1392 155.572 12.9758 157.52 10.267C159.487 7.53965 162.205 5.41528 165.674 3.89389C169.162 2.37251 173.161 1.61182 177.669 1.61182C182.27 1.61182 186.25 2.38179 189.608 3.92173C192.967 5.46166 195.555 7.63242 197.373 10.434C199.21 13.217 200.137 16.4732 200.156 20.2024H185.35Z" fill="white"/>
<path d="M139.456 2.39111V59.3874H123.982V2.39111H139.456Z" fill="white"/>
<path d="M80.5989 59.3874H58.6687V2.39111H80.3763C86.2392 2.39111 91.3043 3.53215 95.5716 5.81423C99.8574 8.07775 103.16 11.3432 105.479 15.6105C107.817 19.8592 108.986 24.9521 108.986 30.8893C108.986 36.8264 107.826 41.9286 105.507 46.1959C103.188 50.4446 99.9038 53.71 95.6551 55.9921C91.4063 58.2556 86.3876 59.3874 80.5989 59.3874ZM74.1423 46.2515H80.0423C82.8624 46.2515 85.2651 45.797 87.2503 44.8879C89.2541 43.9787 90.7755 42.411 91.8145 40.1846C92.872 37.9581 93.4008 34.8597 93.4008 30.8893C93.4008 26.9188 92.8628 23.8204 91.7867 21.594C90.7291 19.3675 89.1706 17.7998 87.1112 16.8907C85.0703 15.9815 82.5656 15.527 79.597 15.527H74.1423V46.2515Z" fill="white"/>
<path fill-rule="evenodd" clip-rule="evenodd" d="M17.5246 37.0738L2.06384 21.6131V2.37061H43.1645V14.8282H17.5246L27.3127 24.6162H41.0746V37.0738H17.5246Z" fill="white"/>
<path d="M17.5246 46.8618V44.9877L2.06385 29.5269L2.06384 59.3194H43.0774V46.8618H17.5246Z" fill="white"/>
<path d="M239.538 70.301H242.908L247.42 81.3143H247.598L252.11 70.301H255.479V85.5H252.837V75.0581H252.696L248.496 85.4555H246.522L242.321 75.0358H242.18V85.5H239.538V70.301ZM273.104 77.9005C273.104 79.5381 272.797 80.9408 272.184 82.1084C271.575 83.2711 270.744 84.1617 269.69 84.7801C268.641 85.3986 267.451 85.7078 266.12 85.7078C264.789 85.7078 263.597 85.3986 262.543 84.7801C261.494 84.1567 260.663 83.2637 260.05 82.101C259.441 80.9334 259.137 79.5332 259.137 77.9005C259.137 76.2628 259.441 74.8627 260.05 73.7C260.663 72.5324 261.494 71.6393 262.543 71.0209C263.597 70.4024 264.789 70.0932 266.12 70.0932C267.451 70.0932 268.641 70.4024 269.69 71.0209C270.744 71.6393 271.575 72.5324 272.184 73.7C272.797 74.8627 273.104 76.2628 273.104 77.9005ZM270.336 77.9005C270.336 76.7477 270.155 75.7755 269.794 74.9839C269.438 74.1873 268.943 73.5862 268.31 73.1805C267.676 72.7698 266.946 72.5645 266.12 72.5645C265.294 72.5645 264.564 72.7698 263.931 73.1805C263.298 73.5862 262.8 74.1873 262.439 74.9839C262.083 75.7755 261.905 76.7477 261.905 77.9005C261.905 79.0533 262.083 80.028 262.439 80.8245C262.8 81.6161 263.298 82.2173 263.931 82.6279C264.564 83.0336 265.294 83.2365 266.12 83.2365C266.946 83.2365 267.676 83.0336 268.31 82.6279C268.943 82.2173 269.438 81.6161 269.794 80.8245C270.155 80.028 270.336 79.0533 270.336 77.9005ZM275.41 72.609V70.301H287.537V72.609H282.839V85.5H280.108V72.609H275.41ZM303.827 77.9005C303.827 79.5381 303.52 80.9408 302.907 82.1084C302.298 83.2711 301.467 84.1617 300.413 84.7801C299.364 85.3986 298.175 85.7078 296.844 85.7078C295.513 85.7078 294.32 85.3986 293.267 84.7801C292.218 84.1567 291.386 83.2637 290.773 82.101C290.164 80.9334 289.86 79.5332 289.86 77.9005C289.86 76.2628 290.164 74.8627 290.773 73.7C291.386 72.5324 292.218 71.6393 293.267 71.0209C294.32 70.4024 295.513 70.0932 296.844 70.0932C298.175 70.0932 299.364 70.4024 300.413 71.0209C301.467 71.6393 302.298 72.5324 302.907 73.7C303.52 74.8627 303.827 76.2628 303.827 77.9005ZM301.059 77.9005C301.059 76.7477 300.878 75.7755 300.517 74.9839C300.161 74.1873 299.666 73.5862 299.033 73.1805C298.4 72.7698 297.67 72.5645 296.844 72.5645C296.017 72.5645 295.288 72.7698 294.654 73.1805C294.021 73.5862 293.524 74.1873 293.163 74.9839C292.806 75.7755 292.628 76.7477 292.628 77.9005C292.628 79.0533 292.806 80.028 293.163 80.8245C293.524 81.6161 294.021 82.2173 294.654 82.6279C295.288 83.0336 296.017 83.2365 296.844 83.2365C297.67 83.2365 298.4 83.0336 299.033 82.6279C299.666 82.2173 300.161 81.6161 300.517 80.8245C300.878 80.028 301.059 79.0533 301.059 77.9005ZM307.475 85.5V70.301H313.175C314.342 70.301 315.322 70.5038 316.114 70.9095C316.91 71.3152 317.511 71.8842 317.917 72.6165C318.328 73.3438 318.533 74.1923 318.533 75.162C318.533 76.1367 318.325 76.9827 317.91 77.7001C317.499 78.4126 316.893 78.9642 316.091 79.3551C315.29 79.741 314.305 79.934 313.138 79.934H309.078V77.6482H312.767C313.449 77.6482 314.009 77.5542 314.444 77.3662C314.879 77.1732 315.201 76.8937 315.409 76.5275C315.621 76.1565 315.728 75.7013 315.728 75.162C315.728 74.6227 315.621 74.1626 315.409 73.7816C315.196 73.3957 314.872 73.1038 314.436 72.9059C314.001 72.703 313.44 72.6016 312.752 72.6016H310.229V85.5H307.475ZM315.327 78.6129L319.09 85.5H316.017L312.321 78.6129H315.327ZM330.372 74.4792C330.303 73.8311 330.011 73.3264 329.497 72.9653C328.987 72.6041 328.324 72.4235 327.508 72.4235C326.934 72.4235 326.442 72.5101 326.031 72.6833C325.62 72.8564 325.306 73.0914 325.088 73.3883C324.871 73.6851 324.759 74.0241 324.754 74.405C324.754 74.7217 324.826 74.9963 324.97 75.2288C325.118 75.4613 325.318 75.6592 325.571 75.8225C325.823 75.9808 326.103 76.1144 326.409 76.2233C326.716 76.3321 327.025 76.4236 327.337 76.4979L328.762 76.8541C329.336 76.9877 329.888 77.1682 330.417 77.3958C330.951 77.6234 331.429 77.9104 331.849 78.2567C332.275 78.6031 332.611 79.0211 332.859 79.5109C333.106 80.0007 333.23 80.5747 333.23 81.2327C333.23 82.1233 333.002 82.9075 332.547 83.5853C332.092 84.2582 331.434 84.7851 330.573 85.166C329.717 85.5421 328.68 85.7301 327.463 85.7301C326.281 85.7301 325.254 85.547 324.383 85.1809C323.518 84.8148 322.84 84.2804 322.35 83.5779C321.865 82.8753 321.603 82.0194 321.563 81.0101H324.272C324.312 81.5395 324.475 81.9798 324.762 82.3311C325.049 82.6823 325.422 82.9446 325.883 83.1177C326.348 83.2909 326.867 83.3775 327.441 83.3775C328.04 83.3775 328.564 83.2884 329.014 83.1103C329.47 82.9273 329.826 82.6749 330.083 82.3533C330.34 82.0268 330.471 81.6458 330.476 81.2104C330.471 80.8146 330.355 80.4881 330.128 80.2308C329.9 79.9686 329.581 79.7509 329.17 79.5777C328.764 79.3996 328.29 79.2413 327.745 79.1028L326.016 78.6575C324.764 78.3359 323.775 77.8485 323.048 77.1955C322.325 76.5374 321.964 75.6642 321.964 74.5757C321.964 73.6802 322.206 72.896 322.691 72.2231C323.181 71.5503 323.847 71.0283 324.688 70.6572C325.529 70.2812 326.481 70.0932 327.545 70.0932C328.623 70.0932 329.568 70.2812 330.38 70.6572C331.196 71.0283 331.837 71.5453 332.302 72.2083C332.767 72.8663 333.007 73.6233 333.022 74.4792H330.372Z" fill="white"/>
</svg>
