<svg width="800" height="800" viewBox="0 0 800 800" fill="none" xmlns="http://www.w3.org/2000/svg">
<path fill-rule="evenodd" clip-rule="evenodd" d="M2.23926 446.332L30.7553 424.49C45.8981 444.26 61.9792 453.371 79.8986 453.371C97.7189 453.371 113.358 444.365 127.822 424.751L156.731 446.07C135.876 474.35 109.93 489.29 79.8986 489.29C49.9665 489.29 23.78 474.455 2.23926 446.332Z" fill="url(#paint0_linear_605_790)"/>
<path fill-rule="evenodd" clip-rule="evenodd" d="M79.8074 351.403L29.0536 395.137L5.60632 367.926L79.9082 303.901L153.633 367.976L130.07 395.087L79.8074 351.403Z" fill="url(#paint1_linear_605_790)"/>
<path d="M351.384 340.823H322.648V460.555H351.384V340.823Z" fill="white"/>
<path fill-rule="evenodd" clip-rule="evenodd" d="M264.574 461.083C247.634 461.083 233.517 455.593 222.067 444.614C210.617 433.477 204.971 419.204 204.971 401.794C204.971 384.226 210.774 369.796 222.224 358.503C233.831 347.053 247.947 341.407 264.73 341.407C285.434 341.407 303.786 350.347 314.451 364.307L295.786 383.913C286.845 374.345 277.121 369.483 266.612 369.483C257.672 369.483 250.3 372.463 244.183 378.58C238.223 384.697 235.243 392.383 235.243 401.637C235.243 410.577 238.223 418.106 244.183 424.223C250.3 430.183 257.672 433.163 266.456 433.163C277.906 433.163 287.944 428.144 296.256 418.263L315.707 436.928C310.375 443.986 303.158 449.789 294.217 454.338C285.279 458.887 275.396 461.083 264.574 461.083Z" fill="white"/>
<path fill-rule="evenodd" clip-rule="evenodd" d="M394.485 350.401C394.485 358.997 387.518 365.966 378.921 365.966C370.324 365.966 363.355 358.997 363.355 350.401C363.355 341.804 370.324 334.836 378.921 334.836C387.518 334.836 394.485 341.804 394.485 350.401ZM393.287 373.15H364.552V460.554H393.287V373.15Z" fill="white"/>
<path fill-rule="evenodd" clip-rule="evenodd" d="M448.834 461.239C435.189 461.239 424.208 457.004 415.583 448.534C407.113 440.065 402.876 429.242 402.876 415.91C402.876 402.578 407.113 391.755 415.738 383.285C424.366 374.815 435.501 370.581 449.304 370.581C467.344 370.581 483.183 379.364 490.555 395.833L468.439 407.44C464.048 400.068 457.932 396.304 449.932 396.304C444.13 396.304 439.422 398.186 435.659 401.95C432.051 405.715 430.169 410.42 430.169 415.91C430.169 427.36 438.482 435.83 449.62 435.83C457.617 435.83 464.989 431.438 468.127 424.693L490.242 437.869C482.713 452.299 467.186 461.239 448.834 461.239Z" fill="white"/>
<path fill-rule="evenodd" clip-rule="evenodd" d="M526.194 340.823H497.459V460.554H526.194V430.074L529.561 426.934L555.828 460.554H589.256L548.899 408.901L587.237 373.15H552.124L526.194 397.331V340.823Z" fill="white"/>
<path fill-rule="evenodd" clip-rule="evenodd" d="M594.439 415.31V340.823H624.375V413.642C624.375 426.661 631.961 432.935 642.932 432.935C653.744 432.935 661.49 426.347 661.49 413.642V340.823H691.423V415.31C691.423 449.503 667.417 462.365 642.932 462.365C618.606 462.365 594.439 449.503 594.439 415.31Z" fill="white"/>
<path fill-rule="evenodd" clip-rule="evenodd" d="M756.079 462.949C779.223 462.949 797.986 442.579 797.986 417.451C797.986 392.323 779.223 371.953 756.079 371.953C746.645 371.953 737.941 375.337 730.935 381.048V373.15H703.397V496.474H730.935V453.853C737.941 459.564 746.645 462.949 756.079 462.949ZM730.935 417.497V417.404C730.961 406.184 739.794 397.096 750.69 397.096C761.603 397.096 770.448 406.209 770.448 417.451C770.448 428.692 761.603 437.805 750.69 437.805C739.794 437.805 730.961 428.717 730.935 417.497Z" fill="white"/>
<defs>
<linearGradient id="paint0_linear_605_790" x1="2.23926" y1="500.958" x2="156.731" y2="500.958" gradientUnits="userSpaceOnUse">
<stop stop-color="#8930FD"/>
<stop offset="1" stop-color="#49CCF9"/>
</linearGradient>
<linearGradient id="paint1_linear_605_790" x1="5.60632" y1="411.565" x2="153.633" y2="411.565" gradientUnits="userSpaceOnUse">
<stop stop-color="#FF02F0"/>
<stop offset="1" stop-color="#FFC800"/>
</linearGradient>
</defs>
</svg>
