<svg width="800" height="800" viewBox="0 0 800 800" fill="none" xmlns="http://www.w3.org/2000/svg">
<g clip-path="url(#clip0_605_613)">
<path d="M0.09375 326.842H27.9875V388.814H86.8172V326.842H114.747V478.964H86.8172V415.691H27.9875V478.964H0.09375V326.842Z" fill="#45535E"/>
<path d="M203.114 429.416C203.114 442.15 192.739 452.513 180.008 452.513C167.272 452.513 156.903 442.15 156.903 429.416V363.922H130.45V429.416C130.45 456.739 152.683 478.964 180.008 478.964C207.327 478.964 229.558 456.739 229.558 429.416V363.922H203.114V429.416Z" fill="#45535E"/>
<path d="M303.405 364.689C290.283 364.689 281.123 368.497 272.278 377.18V326.842H245.739V420.131C245.739 455.05 270.986 478.964 299.35 478.964C330.883 478.964 358.511 454.624 358.511 421.828C358.511 389.449 333.034 364.689 303.405 364.689ZM304.064 454.413C286.081 454.413 272.33 439.394 272.33 421.828C272.33 404.259 286.081 389.236 304.064 389.236C319.302 389.236 333.061 404.259 333.061 421.828C333.061 439.394 319.302 454.413 304.064 454.413Z" fill="#45535E"/>
<path d="M403.084 371.375C403.084 358.034 411.973 353.805 421.705 353.805C429.539 353.805 439.906 359.73 446.672 366.927L464.02 346.613C455.35 334.975 437.789 326.931 423.398 326.931C394.616 326.931 373.877 343.65 373.877 371.375C373.877 422.797 437.153 406.497 437.153 435.284C437.153 444.163 428.48 452 418.539 452C402.873 452 397.792 444.381 390.6 436.338L371.339 456.227C383.62 471.253 398.852 478.875 417.053 478.875C444.35 478.875 466.359 461.945 466.359 435.489C466.359 378.355 403.084 396.133 403.084 371.375Z" fill="#45535E"/>
<path d="M536.225 363.198C507.864 363.198 482.614 387.098 482.614 422.025V515.555H509.152V464.978C517.998 473.655 527.153 477.469 540.28 477.469C569.908 477.469 595.387 452.713 595.387 420.333C595.387 387.533 567.752 363.198 536.225 363.198ZM540.941 452.925C522.959 452.925 509.206 437.886 509.206 420.333C509.206 402.764 522.959 387.741 540.941 387.741C556.175 387.741 569.936 402.764 569.936 420.333C569.936 437.886 556.175 452.925 540.941 452.925Z" fill="#45535E"/>
<path d="M790.733 454.413C775.08 454.413 770.636 447.644 770.636 437.27V391.352H794.967V368.077H770.636V337.389L743.769 349.449V442.984C743.769 466.9 760.269 478.964 782.902 478.964C786.288 478.964 790.948 478.745 793.491 478.119L800.052 453.997C797.089 454.202 793.705 454.413 790.733 454.413Z" fill="#45535E"/>
<path d="M720.747 392.705C715.659 383.952 708.503 376.934 699.556 371.652C692.87 367.759 685.938 365.289 678.125 364.228V336.416C685.938 333.098 690.786 325.756 690.786 317.191C690.786 305.516 681.423 296.055 669.758 296.055C658.083 296.055 648.556 305.516 648.556 317.191C648.556 325.756 653.125 333.098 660.938 336.416V364.241C654.688 365.144 648.206 367.092 642.287 370.086C630.198 360.905 590.558 330.784 567.369 313.192C567.919 311.209 568.342 309.166 568.342 307.009C568.342 294.078 557.87 283.597 544.934 283.597C531.998 283.597 521.531 294.078 521.531 307.009C521.531 319.939 532.009 330.423 544.945 330.423C549.358 330.423 553.439 329.133 556.961 327.011L561.855 330.723L629.098 379.173C625.544 382.438 622.233 386.15 619.584 390.316C614.217 398.808 610.938 408.152 610.938 418.344V420.47C610.938 427.625 612.297 434.38 614.612 440.725C616.652 446.266 619.633 451.303 623.325 455.858L601.008 478.23C599.028 477.5 596.948 477.1 594.778 477.1C589.947 477.1 585.416 478.988 581.998 482.398C578.578 485.819 576.705 490.361 576.705 495.195C576.706 500.028 578.589 504.57 582.008 507.988C585.425 511.406 589.967 513.291 594.802 513.291C599.636 513.291 604.18 511.406 607.6 507.988C611.013 504.57 612.897 500.027 612.897 495.195C612.897 493.325 612.608 491.5 612.064 489.766L635.131 466.695C638.294 468.88 641.709 470.719 645.381 472.305C652.623 475.436 660.617 477.344 669.366 477.344H670.969C680.641 477.344 689.764 475.072 698.341 470.425C707.378 465.514 714.452 458.798 719.795 450.225C725.167 441.628 728.125 432.13 728.125 421.68V421.158C728.125 410.878 725.745 401.394 720.747 392.705ZM692.562 441.1C686.302 448.058 679.105 452.344 670.969 452.344H669.628C664.981 452.344 660.436 451.059 655.986 448.723C650.97 446.152 647.158 442.483 644.037 437.838C640.812 433.278 639.063 428.3 639.063 423.022V421.419C639.063 416.23 640.058 411.309 642.567 406.663C645.25 401.583 648.873 397.633 653.692 394.492C658.423 391.373 663.477 389.844 669.105 389.844H669.628C674.731 389.844 679.563 390.85 684.122 393.183C688.767 395.67 692.562 399.069 695.505 403.539C698.362 408.011 700.063 412.834 700.609 418.089C700.695 419.181 700.739 420.3 700.739 421.369C700.739 428.5 698.014 435.105 692.562 441.1Z" fill="#F8761F"/>
</g>
<defs>
<clipPath id="clip0_605_613">
<rect width="800" height="800" fill="white"/>
</clipPath>
</defs>
</svg>
