<svg width="800" height="800" viewBox="0 0 800 800" fill="none" xmlns="http://www.w3.org/2000/svg">
<path fill-rule="evenodd" clip-rule="evenodd" d="M309.608 335.031C341.52 335.031 364.534 359.988 364.534 395.786C364.534 431.534 341.52 456.491 309.608 456.491C277.747 456.491 254.734 431.534 254.734 395.786C254.734 359.988 277.747 335.031 309.608 335.031ZM309.608 353.595C289.714 353.595 275.753 370.165 275.753 395.786C275.753 421.357 289.714 437.978 309.608 437.978C329.502 437.978 343.464 421.357 343.464 395.786C343.464 370.165 329.502 353.595 309.608 353.595ZM398.952 445.649V484.26H379.211V368.528H398.952V377.734C404.373 371.29 412.555 366.892 423.755 366.892C447.894 366.892 461.702 387.246 461.702 411.691C461.702 436.137 447.894 456.491 423.755 456.491C412.555 456.491 404.373 452.093 398.952 445.649ZM398.44 414.3C398.44 430.256 407.646 439.256 419.817 439.256C434.085 439.256 441.808 428.108 441.808 411.691C441.808 395.275 434.085 384.126 419.817 384.126C407.646 384.126 398.44 392.974 398.44 409.237V414.3ZM473.157 411.64C473.157 386.376 489.267 366.841 514.275 366.841C539.232 366.841 552.579 385.712 552.579 409.39V415.936H492.079C493.563 430.716 502.41 439.717 515.093 439.717C524.81 439.717 532.532 434.807 535.14 425.96L552.068 432.352C545.982 447.439 532.328 456.491 515.093 456.491C490.443 456.491 473.157 438.234 473.157 411.64ZM493.051 401.156H532.685C532.532 391.644 526.6 383.41 514.121 383.41C503.893 383.41 496.017 389.496 493.051 401.156ZM567.359 368.477H587.1V377.682C592.009 371.955 599.731 366.841 610.931 366.841C628.984 366.841 639.826 379.319 639.826 397.883V454.65H620.137V403.611C620.137 392.974 615.841 385.251 604.999 385.251C596.1 385.251 587.1 391.797 587.1 404.122V454.65H567.359V368.477ZM721.447 336.821L766.145 454.701H744.921L734.744 427.75H683.807L673.784 454.701H652.867L697.615 336.821H721.447ZM690.711 409.39H727.84L709.122 360.141L690.711 409.39ZM778.93 337.179H800V455.008H778.93V337.179ZM206.559 380.086C222.617 397.883 225.379 424.016 213.361 444.78C205.587 458.434 192.239 468.049 176.846 471.22C169.482 494.028 148.156 509.473 124.171 509.422C108.419 509.524 93.4347 502.825 83.002 491.062C59.5282 496.125 35.4919 485.437 23.5249 464.622C15.5469 451.07 13.8592 434.756 18.8199 419.823C2.76161 402.077 -1.12908e-05 375.893 12.0181 355.18C19.8427 341.526 33.1394 331.86 48.5329 328.74C55.8972 305.932 77.223 290.487 101.208 290.538C116.96 290.436 131.944 297.135 142.377 308.898C165.851 303.835 189.887 314.523 201.854 335.338C209.781 348.89 211.52 365.204 206.559 380.137V380.086ZM165.186 454.036V403.151C165.186 402.946 165.032 402.742 164.828 402.69L146.417 392.053V453.474C146.417 456.031 145.036 458.434 142.786 459.662L99.1626 484.874C98.8046 485.079 98.1909 485.386 97.884 485.59C105.248 491.727 114.556 495.102 124.171 495.051C146.826 495.051 165.186 476.692 165.186 454.036ZM35.9522 457.411C47.3055 477.05 72.4158 483.749 92.0539 472.447L136.138 447.03C136.342 446.876 136.444 446.672 136.393 446.467V425.193L83.1554 455.877C80.9052 457.207 78.1947 457.207 75.9956 455.877L32.3212 430.716C31.912 430.511 31.3495 430.153 31.0426 429.949C29.4061 439.41 31.1449 449.127 35.9522 457.411ZM24.4454 362.289C13.1432 381.927 19.8939 406.986 39.4809 418.34L83.5645 443.757C83.7691 443.859 84.0248 443.859 84.2294 443.706L102.64 433.068L49.4023 402.384C47.1521 401.105 45.7713 398.701 45.8224 396.144V345.822V344.287C36.8216 347.612 29.2527 353.953 24.4454 362.289ZM175.976 397.525C178.176 398.804 179.556 401.156 179.556 403.713V455.57C188.557 452.246 196.126 445.905 200.882 437.569C212.235 417.982 205.536 392.871 185.898 381.518L141.763 356.101C141.559 355.999 141.303 356.05 141.149 356.152L122.687 366.789L175.976 397.525ZM194.336 369.909C195.973 360.499 194.234 350.782 189.427 342.497C178.124 322.859 153.014 316.109 133.376 327.462L89.2412 352.879C89.0878 352.981 88.9855 353.186 88.9855 353.442V374.716L142.274 343.981C144.474 342.702 147.235 342.702 149.434 343.981L193.058 369.142C193.467 369.346 194.029 369.704 194.336 369.909ZM78.9618 407.805L79.013 346.384C78.9618 343.827 80.3426 341.475 82.5928 340.196L126.216 315.035C126.574 314.779 127.188 314.472 127.495 314.319C120.13 308.182 110.823 304.806 101.259 304.806C78.5527 304.806 60.193 323.166 60.1419 345.822V396.707C60.193 396.912 60.2953 397.116 60.4999 397.218L78.9618 407.805ZM88.9855 413.635L112.715 427.289L136.444 413.635V386.274L112.715 372.568L88.9855 386.274V413.635Z" fill="black"/>
</svg>
