<svg width="800" height="800" viewBox="0 0 800 800" fill="none" xmlns="http://www.w3.org/2000/svg">
<path fill-rule="evenodd" clip-rule="evenodd" d="M50.8857 319.915L96.2166 361.68V361.671V320.011H105.041V361.867L150.575 319.915V367.534H169.27V436.22H150.632V478.622L105.041 438.567V479.082H96.2166V439.227L50.937 479.109V436.22H32.2418V367.534H50.8857V319.915ZM89.5642 376.25H41.066V427.503H50.926V411.336L89.5642 376.25ZM59.7607 415.204V459.659L96.2166 427.549V382.091L59.7607 415.204ZM105.295 427.125V382.049L141.761 415.163V436.22H141.808V459.205L105.295 427.125ZM150.632 427.503H160.445V376.25H112.308L150.632 410.973V427.503ZM141.751 367.534V339.964L111.827 367.534H141.751ZM89.6328 367.534H59.7098V339.964L89.6328 367.534Z" fill="black"/>
<mask id="mask0_605_711" style="mask-type:luminance" maskUnits="userSpaceOnUse" x="207" y="341" width="561" height="117">
<path d="M767.758 341.073H207.053V457.95H767.758V341.073Z" fill="white"/>
</mask>
<g mask="url(#mask0_605_711)">
<path d="M387.285 366.488H392.888V378.033H385.635C379.952 378.033 375.713 379.401 372.903 382.143C370.11 384.877 368.706 389.374 368.706 395.624V433.482H357.256V366.751H368.706V377.4C368.706 378.001 369.008 378.297 369.596 378.297C369.931 378.297 370.184 378.215 370.364 378.042C370.543 377.869 370.698 377.531 370.878 377.012C373.083 370.004 378.563 366.496 387.293 366.496H387.285V366.488ZM463.448 380.793C466.454 386.137 467.965 392.578 467.965 400.104C467.965 407.631 466.462 414.072 463.448 419.416C460.435 424.761 456.531 428.763 451.737 431.415C446.944 434.067 441.79 435.393 436.278 435.393C425.416 435.393 417.78 431.028 413.37 422.299C413.035 421.615 412.602 421.269 412.096 421.269C411.589 421.269 411.328 421.525 411.328 422.044V457.851H399.878V366.743H411.328V378.165C411.328 378.676 411.581 378.94 412.096 378.94C412.61 378.94 413.027 378.602 413.37 377.91C417.78 369.181 425.416 364.816 436.278 364.816C441.79 364.816 446.944 366.142 451.737 368.794C456.531 371.446 460.427 375.448 463.448 380.793ZM456.523 400.104C456.523 392.231 454.424 386.096 450.226 381.69C446.029 377.284 440.5 375.085 433.615 375.085C426.731 375.085 421.202 377.292 417.004 381.69C412.798 386.096 411.263 392.239 411.263 400.104C411.263 407.969 412.806 414.113 417.004 418.519C421.202 422.933 426.739 425.124 433.615 425.124C440.492 425.124 446.029 422.917 450.226 418.519C454.424 414.121 456.523 407.969 456.523 400.104ZM270.615 380.891C273.62 386.236 275.131 392.676 275.131 400.203C275.131 407.731 273.628 414.17 270.615 419.515C267.601 424.86 263.698 428.863 258.904 431.514C254.11 434.166 248.957 435.492 243.444 435.492C232.582 435.492 224.946 431.127 220.536 422.398C220.202 421.714 219.769 421.368 219.262 421.368C218.756 421.368 218.495 421.623 218.495 422.142V457.95H207.053V366.842H218.503V378.264C218.503 378.775 218.756 379.038 219.271 379.038C219.785 379.038 220.202 378.701 220.545 378.009C224.955 369.279 232.59 364.915 243.452 364.915C248.965 364.915 254.118 366.24 258.912 368.892C263.706 371.544 267.602 375.547 270.623 380.891H270.615ZM263.681 400.203C263.681 392.33 261.582 386.195 257.385 381.789C253.187 377.391 247.65 375.184 240.773 375.184C233.897 375.184 228.36 377.391 224.162 381.789C219.965 386.203 218.421 392.339 218.421 400.203C218.421 408.068 219.965 414.212 224.162 418.618C228.36 423.032 233.889 425.222 240.773 425.222C247.658 425.222 253.187 423.015 257.385 418.618C261.582 414.22 263.681 408.068 263.681 400.203ZM337.019 412.285H349.106C347.497 418.535 344.206 423.946 339.248 428.517C334.283 433.095 327.178 435.377 317.925 435.377C310.967 435.377 304.842 433.944 299.542 431.078C294.241 428.212 290.15 424.135 287.258 418.823C284.368 413.52 282.931 407.277 282.931 400.088C282.931 392.898 284.335 386.656 287.128 381.352C289.921 376.049 293.849 371.964 298.896 369.098C303.944 366.232 309.856 364.799 316.643 364.799C323.429 364.799 329.056 366.216 333.76 369.032C338.473 371.857 341.984 375.604 344.32 380.257C346.655 384.927 347.815 390.032 347.815 395.592V403.291H295.009C295.425 409.962 297.663 415.274 301.689 419.202C305.715 423.139 311.13 425.107 317.917 425.107C323.429 425.107 327.659 423.979 330.583 421.706C333.507 419.433 335.647 416.295 337.011 412.268L337.019 412.285ZM294.772 393.681H334.732C334.732 387.867 333.246 383.304 330.273 380.01C327.3 376.724 322.637 375.069 316.275 375.069C310.338 375.069 305.479 376.675 301.706 379.887C297.933 383.09 295.622 387.694 294.772 393.681ZM477.201 433.466H488.659V341.073H477.201V433.474V433.466ZM638.232 359.455H651.612V345.01H638.232V359.455ZM687.632 423.526C685.552 423.74 684.292 423.847 683.879 423.847C683.29 423.847 682.806 423.674 682.474 423.328C682.136 422.991 681.96 422.521 681.96 421.912C681.96 421.492 682.071 420.223 682.287 418.124C682.489 416.032 682.605 412.795 682.605 408.438V376.51H698.937L695.718 366.735H682.61V348.765H671.164V366.727H658.705V376.502H671.164V411.634C671.164 418.997 672.952 424.473 676.509 428.064C680.071 431.654 685.501 433.458 692.806 433.458H701.713V423.197H697.254C692.927 423.197 689.723 423.303 687.642 423.518L687.632 423.526ZM756.846 366.735L737.884 422.727C737.632 423.419 737.229 424.317 735.935 424.317C734.635 424.317 734.227 423.419 733.97 422.727L715.008 366.735H703.33L725.29 433.466H733.058C733.562 433.466 733.95 433.516 734.212 433.598C734.464 433.68 734.675 433.894 734.846 434.24C735.179 434.751 735.139 435.525 734.715 436.546L731.154 446.297C730.64 447.582 729.668 448.224 728.232 448.224C727.718 448.224 726.534 448.117 724.67 447.902C722.801 447.688 720.393 447.582 717.421 447.582H708.126V457.843H720.343C727.471 457.843 731.758 456.624 735.451 454.186C739.144 451.749 742 447.45 744.04 441.29L767.758 369.296V366.735H756.861H756.846ZM599.476 391.63L581.531 366.735H568.932V369.296L590.433 398.169L564.217 430.896V433.458H577.073L597.945 406.635L617.416 433.458H629.763V430.896L606.977 400.096L631.678 369.428V366.735H618.821L599.481 391.63H599.476ZM639.451 433.466H650.907V366.743H639.451V433.474V433.466ZM564.06 412.285C562.443 418.535 559.164 423.946 554.207 428.517C549.239 433.095 542.136 435.377 532.882 435.377C525.924 435.377 519.799 433.944 514.499 431.078C509.189 428.212 505.108 424.135 502.216 418.823C499.333 413.52 497.896 407.277 497.896 400.088C497.896 392.898 499.3 386.656 502.094 381.352C504.897 376.049 508.816 371.964 513.864 369.098C518.907 366.232 524.821 364.799 531.617 364.799C538.413 364.799 544.03 366.216 548.741 369.032C553.446 371.857 556.967 375.604 559.3 380.257C561.637 384.927 562.796 390.032 562.796 395.592V403.291H509.985C510.408 409.962 512.635 415.274 516.665 419.202C520.69 423.139 526.106 425.107 532.892 425.107C538.403 425.107 542.635 423.979 545.557 421.706C548.479 419.433 550.62 416.295 551.975 412.268H564.071L564.06 412.285ZM510.015 393.681H549.975C549.975 387.867 548.489 383.304 545.526 380.01C542.549 376.724 537.889 375.069 531.526 375.069C525.587 375.069 520.731 376.675 516.957 379.887C513.184 383.09 510.867 387.694 510.025 393.681H510.015Z" fill="black"/>
</g>
</svg>
