<svg width="800" height="800" viewBox="0 0 800 800" fill="none" xmlns="http://www.w3.org/2000/svg">
<g clip-path="url(#clip0_605_834)">
<path d="M320.931 413.228L307.163 375.769C306.555 374.149 304.328 374.149 303.923 375.769L289.952 413.228C289.547 414.443 290.357 415.658 291.572 415.658H319.514C320.526 415.658 321.539 414.443 320.931 413.228ZM327.411 434.286H283.473C282.663 434.286 282.055 434.691 281.853 435.501L273.146 458.786C272.944 459.394 272.134 460.001 271.526 460.001H252.493C251.278 460.001 250.468 458.786 250.873 457.571L294.811 348.029C295.014 347.422 295.824 347.017 296.431 347.017H314.654C315.464 347.017 316.072 347.422 316.274 348.029L360.213 457.571C360.618 458.786 359.808 460.001 358.593 460.001H339.56C338.75 460.001 338.142 459.596 337.94 458.786L329.233 435.501C328.828 434.894 328.221 434.286 327.411 434.286ZM369.122 385.488H385.523C386.535 385.488 387.345 386.298 387.345 387.311V458.381C387.345 459.394 386.535 460.204 385.523 460.204H369.122C368.109 460.204 367.299 459.394 367.299 458.381V387.108C367.299 386.298 368.109 385.488 369.122 385.488ZM446.672 402.699C446.672 403.712 445.862 404.522 444.849 404.522H444.444C436.345 404.522 430.473 406.546 426.626 410.393C422.779 414.241 420.957 420.72 420.957 429.629V458.381C420.957 459.394 420.147 460.204 419.134 460.204H402.936C401.924 460.204 401.114 459.394 401.114 458.381V387.108C401.114 386.096 401.924 385.286 402.936 385.286H418.932C419.944 385.286 420.754 386.096 420.754 387.108V401.079H421.159C423.184 395.207 426.221 390.753 430.271 387.716C434.523 384.678 439.585 383.059 445.862 383.059H446.672V402.699ZM491.42 402.092C490.407 402.092 489.598 402.902 489.598 403.914V433.476C489.598 436.513 490.205 438.741 491.42 439.956C492.635 441.17 494.66 441.98 497.494 441.98H499.114C500.127 441.98 500.936 442.79 500.936 443.803V458.584C500.936 459.596 500.127 460.406 499.114 460.406H492.23C484.94 460.406 479.474 458.584 475.626 454.939C471.779 451.294 469.754 445.625 469.754 438.336V403.914C469.754 402.902 468.945 402.092 467.932 402.092H457.808C456.796 402.092 455.986 401.282 455.986 400.269V387.108C455.986 386.096 456.796 385.286 457.808 385.286H467.932C468.945 385.286 469.754 384.476 469.754 383.464V357.141C469.754 356.129 470.564 355.319 471.577 355.319H487.978C488.99 355.319 489.8 356.129 489.8 357.141V383.464C489.8 384.476 490.61 385.286 491.622 385.286H503.366C504.379 385.286 505.189 386.096 505.189 387.108V400.269C505.189 401.282 504.379 402.092 503.366 402.092H491.42ZM566.135 437.931C569.78 434.084 571.602 429.022 571.602 422.745C571.602 416.468 569.78 411.406 566.135 407.559C562.49 403.712 557.631 401.687 551.557 401.687C545.482 401.687 540.623 403.712 536.978 407.559C533.333 411.406 531.511 416.468 531.511 422.745C531.511 429.022 533.333 434.084 536.978 437.931C540.623 441.778 545.482 443.803 551.557 443.803C557.428 443.803 562.288 441.778 566.135 437.931ZM528.474 457.774C523.007 454.737 518.755 450.08 515.515 444.208C512.275 438.336 510.655 431.046 510.655 422.745C510.655 414.443 512.275 407.356 515.515 401.282C518.755 395.41 523.007 390.753 528.474 387.716C533.941 384.678 540.015 383.059 546.495 383.059C552.366 383.059 557.226 384.273 561.478 386.501C565.528 388.728 568.97 391.968 571.4 396.017H571.805V387.311C571.805 386.298 572.614 385.488 573.627 385.488H589.825C590.838 385.488 591.648 386.298 591.648 387.311V458.381C591.648 459.394 590.838 460.204 589.825 460.204H573.627C572.614 460.204 571.805 459.394 571.805 458.381V449.675H571.4C568.97 453.724 565.528 456.964 561.478 459.191C557.428 461.419 552.366 462.633 546.495 462.633C539.813 462.431 533.941 460.811 528.474 457.774ZM658.466 437.931C662.111 434.084 663.933 429.022 663.933 422.745C663.933 416.468 662.111 411.406 658.466 407.559C654.822 403.712 649.962 401.687 643.888 401.687C637.813 401.687 632.954 403.712 629.309 407.559C625.664 411.406 623.64 416.468 623.64 422.745C623.64 429.022 625.462 434.084 629.309 437.931C632.954 441.778 637.813 443.803 643.888 443.803C649.962 443.803 654.822 441.778 658.466 437.931ZM633.966 458.989C629.916 456.761 626.474 453.522 624.045 449.472H623.64V458.179C623.64 459.191 622.83 460.001 621.817 460.001H605.416C604.404 460.001 603.594 459.191 603.594 458.179V348.839C603.594 347.827 604.404 347.017 605.416 347.017H621.817C622.83 347.017 623.64 347.827 623.64 348.839V396.017H624.045C626.474 391.968 629.916 388.728 633.966 386.501C638.016 384.273 643.078 383.059 648.95 383.059C655.429 383.059 661.503 384.678 666.97 387.716C672.437 390.753 676.689 395.41 679.929 401.282C683.169 407.154 684.789 414.443 684.789 422.745C684.789 431.046 683.169 438.133 679.929 444.208C676.689 450.08 672.437 454.737 666.97 457.774C661.503 460.811 655.429 462.431 648.95 462.431C643.078 462.431 638.218 461.216 633.966 458.989ZM712.326 460.001H695.925C694.913 460.001 694.103 459.191 694.103 458.179V348.839C694.103 347.827 694.913 347.017 695.925 347.017H712.326C713.338 347.017 714.148 347.827 714.148 348.839V458.381C713.946 459.191 713.338 460.001 712.326 460.001ZM750.797 402.699C748.165 404.724 746.343 407.761 745.33 411.811C745.128 412.823 745.938 414.038 747.153 414.038H778.132C779.144 414.038 780.157 413.026 779.954 412.013C779.347 408.166 777.727 405.331 775.095 402.902C772.058 400.269 768.008 398.852 763.149 398.852C758.087 399.055 754.037 400.269 750.797 402.699ZM790.483 393.385C796.76 400.269 800 410.191 800 422.745V424.77C800 425.782 799.19 426.592 798.178 426.592H746.343C745.33 426.592 744.318 427.604 744.52 428.617C745.33 433.274 747.355 437.121 750.797 439.753C754.644 442.993 759.504 444.613 765.173 444.613C772.665 444.613 779.55 441.778 786.029 435.906C786.839 435.096 788.054 435.299 788.661 436.311L796.558 447.65C797.165 448.46 796.963 449.472 796.355 450.08C792.508 453.522 788.256 456.357 783.397 458.584C778.132 461.014 772.058 462.431 765.173 462.431C757.074 462.431 749.987 460.811 744.115 457.571C738.041 454.332 733.384 449.675 730.144 443.6C726.905 437.728 725.082 430.641 725.082 422.947C725.082 415.05 726.702 408.166 729.942 402.092C733.181 396.017 737.636 391.36 743.508 388.121C749.38 384.881 756.062 383.059 763.756 383.059C775.297 383.059 784.207 386.501 790.483 393.385ZM389.37 359.166C389.37 365.848 383.903 371.315 377.221 371.315C370.539 371.315 365.072 365.848 365.072 359.166C365.072 352.484 370.539 347.017 377.221 347.017C383.903 347.017 389.37 352.484 389.37 359.166Z" fill="#E4E4E4"/>
<path d="M92.9385 315.227L15.3885 347.219C11.1364 349.041 11.1364 355.116 15.3885 356.938L93.3435 387.918C100.228 390.55 107.72 390.55 114.604 387.918L192.559 356.938C196.811 355.116 197.013 349.041 192.559 347.219L115.009 315.227C107.922 312.19 100.025 312.19 92.9385 315.227Z" fill="#FCB400"/>
<path d="M110.959 404.724V481.869C110.959 485.513 114.604 488.146 118.046 486.728L204.91 453.117C206.935 452.307 208.15 450.484 208.15 448.257V371.112C208.15 367.467 204.505 364.835 201.063 366.252L114.199 399.864C112.174 400.674 110.959 402.496 110.959 404.724Z" fill="#18BFFF"/>
<path d="M0 371.314V443.802C0 447.649 4.45457 450.079 7.89674 448.459L62.1615 422.339L64.7937 421.124L1.61984 367.872C0.809922 368.682 0 369.897 0 371.314Z" fill="#F82B60"/>
<path d="M90.3063 399.257L7.69428 366.455C6.07444 365.847 4.25212 366.05 3.03724 366.86C2.63227 367.062 2.02483 367.467 1.61987 367.872L64.7938 421.124L90.5088 408.773C94.7609 406.748 94.3559 400.876 90.3063 399.257Z" fill="#BA1E45"/>
</g>
<defs>
<clipPath id="clip0_605_834">
<rect width="800" height="174.133" fill="white" transform="translate(0 313)"/>
</clipPath>
</defs>
</svg>
