<svg width="800" height="800" viewBox="0 0 800 800" fill="none" xmlns="http://www.w3.org/2000/svg">
<g clip-path="url(#clip0_605_748)">
<path d="M274.047 403.085V475.141C274.047 477.472 272.105 479.414 269.774 479.414H238.699C236.368 479.414 234.426 477.472 234.426 475.141V361.327C234.426 358.996 236.368 357.054 238.699 357.054H269.774C272.105 357.054 274.047 358.996 274.047 361.327V370.261C281.816 360.55 292.887 354.335 308.23 354.335C322.603 354.335 335.227 360.162 342.802 371.232C352.124 360.162 365.331 354.335 381.452 354.335C408.837 354.335 427.677 370.455 427.677 401.337V475.141C427.677 477.472 425.734 479.414 423.404 479.414H392.328C389.998 479.414 388.055 477.472 388.055 475.141V409.688C388.055 396.287 380.481 389.683 370.187 389.683C361.641 389.683 354.843 395.122 350.765 403.085V475.141C350.765 477.472 348.823 479.414 346.492 479.414H315.416C313.086 479.414 311.143 477.472 311.143 475.141V409.688C311.143 396.287 303.569 389.683 293.275 389.683C284.535 389.683 277.932 395.122 274.047 403.085Z" fill="black"/>
<path d="M479.728 481.939C456.81 481.939 437.388 466.789 437.388 443.289C437.388 421.73 451.566 411.825 477.98 404.833L511.775 396.093C510.804 387.935 504.394 384.051 494.1 384.051C484.972 384.051 478.369 387.547 475.455 394.539C474.678 396.481 472.542 397.646 470.6 397.064L443.797 390.654C441.272 390.072 439.913 387.353 440.689 385.022C448.458 364.24 469.629 353.364 495.46 353.364C530.226 353.364 550.231 369.678 550.231 398.617V475.141C550.231 477.472 548.288 479.414 545.958 479.414H516.63C514.3 479.414 512.357 477.666 512.357 475.335L512.163 468.926L511.969 469.12C501.869 477.666 492.158 481.939 479.728 481.939ZM489.633 451.252C494.683 451.252 498.762 449.698 504.588 446.396L511.386 442.317L511.58 422.507L493.906 427.362C481.865 430.858 476.621 433.772 476.621 440.569C476.621 448.144 483.224 451.252 489.633 451.252Z" fill="black"/>
<path d="M613.547 421.73L601.505 432.801V475.335C601.505 477.666 599.563 479.608 597.232 479.608H566.739C564.409 479.608 562.467 477.666 562.467 475.335V321.317C562.467 318.987 564.409 317.044 566.739 317.044H597.232C599.563 317.044 601.505 318.987 601.505 321.317V390.849L637.048 358.219C637.825 357.443 638.796 357.054 639.961 357.054H677.446C681.33 357.054 683.078 361.91 680.359 364.435L643.846 397.647L685.409 473.005C686.963 475.918 684.826 479.22 681.719 479.22H646.176C644.622 479.22 643.069 478.249 642.486 476.889L613.547 421.73Z" fill="black"/>
<path d="M742.51 482.133C708.521 482.133 677.446 460.769 677.446 417.846C677.446 377.253 707.356 353.752 739.985 353.752C772.615 353.752 798.64 377.448 799.612 414.932C799.806 418.817 799.806 421.73 799.806 423.672C799.806 426.003 797.864 427.945 795.533 427.945H716.679C717.844 442.706 729.692 451.835 744.647 451.835C755.329 451.835 763.875 447.367 770.09 439.404C771.449 437.656 773.974 437.268 775.722 438.433L795.533 451.64C797.475 453 798.058 455.719 796.698 457.661C786.016 473.199 768.536 482.133 742.51 482.133ZM717.456 403.862H760.184C759.99 389.878 749.696 383.857 738.82 383.857C728.915 383.857 718.621 389.683 717.456 403.862Z" fill="black"/>
<mask id="mask0_605_748" style="mask-type:luminance" maskUnits="userSpaceOnUse" x="137" y="357" width="40" height="123">
<path d="M141.394 357.249H172.081C174.411 357.249 176.353 359.191 176.353 361.521V474.947C176.353 477.278 174.411 479.22 172.081 479.22H141.394C139.063 479.22 137.121 477.278 137.121 474.947V361.521C137.121 359.191 139.063 357.249 141.394 357.249Z" fill="white"/>
</mask>
<g mask="url(#mask0_605_748)">
<path d="M97.6936 371.815L171.692 344.43L215.975 464.459L141.976 491.844L97.6936 371.815Z" fill="url(#paint0_linear_605_748)"/>
</g>
<mask id="mask1_605_748" style="mask-type:luminance" maskUnits="userSpaceOnUse" x="-1" y="356" width="88" height="124">
<path d="M51.2746 358.802L0.388463 459.992C-0.582646 462.128 0.194242 464.653 2.33068 465.624L29.716 479.414C31.8524 480.385 34.3773 479.608 35.3484 477.472L86.2345 376.088C87.2057 373.952 86.4288 371.427 84.2923 370.456L56.907 356.666C56.3244 356.277 55.7417 356.277 54.9648 356.277C53.6053 356.472 52.0515 357.248 51.2746 358.802Z" fill="white"/>
</mask>
<g mask="url(#mask1_605_748)">
<path d="M-45.8363 375.894L73.6101 324.425L132.654 460.963L13.2071 512.626L-45.8363 375.894Z" fill="url(#paint1_linear_605_748)"/>
</g>
<mask id="mask2_605_748" style="mask-type:luminance" maskUnits="userSpaceOnUse" x="72" y="355" width="61" height="126">
<path d="M94.1976 359.191L72.4448 469.509C72.0563 471.839 73.4159 473.976 75.7466 474.559L105.851 480.579C108.182 480.968 110.318 479.608 110.901 477.278L132.654 366.96C133.042 364.629 131.682 362.493 129.352 361.91L99.2474 355.889C99.0532 355.889 98.6647 355.889 98.4705 355.889C96.3341 355.695 94.5861 357.054 94.1976 359.191Z" fill="white"/>
</mask>
<g mask="url(#mask2_605_748)">
<path d="M31.2697 370.65L125.856 335.884L173.634 466.013L79.2425 500.779L31.2697 370.65Z" fill="url(#paint2_linear_605_748)"/>
</g>
</g>
<defs>
<linearGradient id="paint0_linear_605_748" x1="98.976" y1="439.534" x2="181.854" y2="408.975" gradientUnits="userSpaceOnUse">
<stop stop-color="#B02DE9"/>
<stop offset="0.02" stop-color="#B02DE9"/>
<stop offset="0.8" stop-color="#6D00CC"/>
<stop offset="1" stop-color="#6D00CC"/>
</linearGradient>
<linearGradient id="paint1_linear_605_748" x1="26.6587" y1="425.748" x2="115.75" y2="387.232" gradientUnits="userSpaceOnUse">
<stop stop-color="#FF00FF"/>
<stop offset="0.17" stop-color="#E90CF9"/>
<stop offset="0.54" stop-color="#C023ED"/>
<stop offset="0.73" stop-color="#B02DE9"/>
<stop offset="1" stop-color="#B02DE9"/>
</linearGradient>
<linearGradient id="paint2_linear_605_748" x1="6.05697" y1="453.902" x2="188.687" y2="386.671" gradientUnits="userSpaceOnUse">
<stop stop-color="#FF00FF"/>
<stop offset="0.02" stop-color="#FF00FF"/>
<stop offset="0.09" stop-color="#E90CF9"/>
<stop offset="0.23" stop-color="#C023ED"/>
<stop offset="0.3" stop-color="#B02DE9"/>
<stop offset="0.42" stop-color="#A42BE3"/>
<stop offset="0.63" stop-color="#8626D5"/>
<stop offset="0.85" stop-color="#6021C3"/>
<stop offset="1" stop-color="#6021C3"/>
</linearGradient>
<clipPath id="clip0_605_748">
<rect width="800" height="165.089" fill="white" transform="translate(0 317.044)"/>
</clipPath>
</defs>
</svg>
