<svg width="800" height="800" viewBox="0 0 800 800" fill="none" xmlns="http://www.w3.org/2000/svg">
<path d="M736.016 367.361C734.072 367.361 732.181 367.762 730.508 368.709L677.558 399.287C674.131 401.262 672.048 404.991 672.048 408.958V470.003C672.048 473.967 674.131 477.691 677.558 479.67L691.386 487.653C698.105 490.964 700.581 490.912 703.639 490.912C713.586 490.912 719.266 484.876 719.266 474.387V414.128C719.266 413.276 718.528 412.667 717.692 412.667H711.059C710.209 412.667 709.486 413.276 709.486 414.128V474.387C709.486 479.036 704.642 483.712 696.783 479.783L682.392 471.351C681.883 471.075 681.492 470.586 681.492 470.003V408.956C681.492 408.378 681.878 407.789 682.392 407.495L735.23 377.031C735.468 376.892 735.74 376.818 736.016 376.818C736.293 376.818 736.564 376.892 736.803 377.031L789.642 407.497C790.145 407.8 790.542 408.361 790.542 408.959V470.005C790.542 470.587 790.248 471.184 789.755 471.466L736.803 501.931C736.35 502.201 735.725 502.201 735.23 501.931L721.626 493.837C721.419 493.725 721.188 493.666 720.952 493.666C720.717 493.666 720.485 493.725 720.278 493.837C716.523 495.966 715.817 496.212 712.295 497.434C711.428 497.737 710.111 498.208 712.745 499.684L730.508 510.137C732.182 511.104 734.084 511.608 736.017 511.6C737.95 511.612 739.852 511.108 741.525 510.139L794.476 479.672C797.903 477.68 799.984 473.969 799.984 470.005V408.958C799.984 404.992 797.903 401.27 794.476 399.291L741.525 368.712C739.866 367.764 737.962 367.362 736.017 367.362L736.016 367.361Z" fill="#83CD29"/>
<path d="M750.181 410.981C735.103 410.981 726.123 417.398 726.123 428.07C726.123 439.645 735.036 442.827 749.508 444.258C766.82 445.953 768.169 448.495 768.169 451.903C768.169 457.814 763.456 460.334 752.319 460.334C738.323 460.334 735.248 456.841 734.219 449.88C734.097 449.133 733.52 448.53 732.756 448.53H725.898C725.055 448.53 724.325 449.258 724.325 450.105C724.325 459.016 729.172 469.553 752.319 469.553C769.073 469.553 778.737 462.977 778.737 451.453C778.737 440.031 770.931 436.964 754.678 434.816C738.256 432.642 736.691 431.578 736.691 427.733C736.691 424.558 738.019 420.311 750.181 420.311C761.047 420.311 765.062 422.655 766.708 429.981C766.852 430.669 767.458 431.217 768.169 431.217H775.028C775.45 431.217 775.859 430.958 776.152 430.655C776.439 430.331 776.642 429.967 776.602 429.531C775.539 416.916 767.127 410.981 750.181 410.981Z" fill="#83CD29"/>
<path d="M424.72 287.317C424.128 287.318 423.547 287.472 423.033 287.766C422.522 288.064 422.098 288.491 421.802 289.004C421.507 289.516 421.35 290.097 421.347 290.689V376.692C421.347 377.536 420.955 378.292 420.223 378.716C419.865 378.924 419.458 379.034 419.043 379.034C418.628 379.034 418.221 378.924 417.862 378.716L403.809 370.622C402.784 370.029 401.621 369.716 400.437 369.716C399.252 369.716 398.089 370.029 397.064 370.622L340.966 402.998C338.869 404.209 337.594 406.536 337.594 408.958V473.712C337.594 476.131 338.87 478.347 340.966 479.558L397.064 511.936C398.089 512.531 399.252 512.844 400.437 512.844C401.621 512.844 402.785 512.531 403.809 511.936L459.908 479.558C460.935 478.967 461.788 478.115 462.38 477.088C462.972 476.062 463.283 474.897 463.281 473.712V312.275C463.28 311.062 462.956 309.871 462.344 308.824C461.732 307.778 460.853 306.912 459.797 306.316L426.406 287.653C425.883 287.361 425.302 287.309 424.72 287.317ZM63.8453 368.148C62.7765 368.191 61.7703 368.378 60.8109 368.934L4.71089 401.312C3.68326 401.903 2.83006 402.754 2.23787 403.781C1.64569 404.808 1.33558 405.973 1.33902 407.158L1.45152 494.062C1.45152 495.27 2.07495 496.394 3.13745 496.984C3.64684 497.29 4.22991 497.452 4.82417 497.452C5.41844 497.452 6.0015 497.29 6.51089 496.984L39.7875 477.873C41.8953 476.62 43.2718 474.442 43.2718 472.027V431.442C43.2718 429.02 44.5453 426.798 46.6453 425.595L60.8093 417.389C61.8334 416.794 62.9981 416.483 64.1828 416.489C65.339 416.489 66.5265 416.778 67.5546 417.389L81.7203 425.595C82.7489 426.185 83.6029 427.037 84.1954 428.064C84.788 429.091 85.0979 430.256 85.0937 431.442V472.025C85.0937 474.441 86.4843 476.634 88.5781 477.872L121.855 496.984C122.364 497.29 122.947 497.452 123.541 497.452C124.136 497.452 124.719 497.29 125.228 496.984C125.741 496.688 126.167 496.261 126.463 495.748C126.759 495.235 126.915 494.653 126.916 494.061L127.025 407.158C127.032 405.972 126.723 404.806 126.13 403.779C125.538 402.751 124.683 401.9 123.653 401.312L67.5546 368.934C66.6062 368.378 65.5968 368.192 64.5203 368.148H63.8453ZM567.945 368.934C566.773 368.934 565.625 369.231 564.573 369.834L508.475 402.212C507.448 402.803 506.595 403.655 506.002 404.682C505.41 405.708 505.099 406.873 505.102 408.058V472.812C505.102 475.248 506.473 477.455 508.586 478.659L564.236 510.362C566.291 511.534 568.8 511.623 570.869 510.472L604.595 491.698C605.666 491.105 606.389 489.995 606.394 488.777C606.399 488.183 606.246 487.599 605.95 487.085C605.653 486.571 605.224 486.145 604.708 485.853L548.272 453.475C547.216 452.872 546.473 451.652 546.473 450.439V430.205C546.473 428.994 547.223 427.884 548.272 427.281L565.809 417.162C566.322 416.866 566.904 416.71 567.496 416.71C568.088 416.71 568.67 416.866 569.183 417.162L586.719 427.281C587.232 427.576 587.659 428.002 587.955 428.515C588.252 429.028 588.407 429.611 588.406 430.203V446.167C588.405 446.76 588.56 447.342 588.856 447.855C589.152 448.368 589.578 448.794 590.092 449.089C591.144 449.697 592.416 449.698 593.464 449.089L627.08 429.531C628.105 428.938 628.957 428.085 629.549 427.059C630.141 426.033 630.453 424.869 630.453 423.684V408.059C630.453 405.645 629.172 403.425 627.08 402.212L571.319 369.834C570.294 369.241 569.129 368.93 567.945 368.934ZM400.211 417.277C400.505 417.277 400.848 417.348 401.111 417.5L420.336 428.63C420.858 428.931 421.236 429.489 421.236 430.091V452.35C421.236 452.955 420.861 453.511 420.336 453.812L401.111 464.942C400.854 465.089 400.564 465.166 400.268 465.166C399.972 465.166 399.682 465.089 399.425 464.942L380.202 453.812C379.678 453.509 379.302 452.955 379.302 452.35V430.091C379.302 429.487 379.68 428.934 380.202 428.63L399.425 417.501C399.661 417.355 399.934 417.277 400.212 417.278L400.211 417.277Z" fill="#E3E5D6"/>
<path d="M232.366 368.597C231.197 368.597 230.041 368.894 228.994 369.497L172.895 401.763C170.797 402.97 169.522 405.302 169.522 407.72V472.475C169.522 474.897 170.798 477.109 172.895 478.322L228.994 510.699C230.018 511.294 231.182 511.607 232.366 511.607C233.551 511.607 234.715 511.294 235.739 510.699L291.837 478.322C292.864 477.73 293.717 476.878 294.309 475.852C294.901 474.825 295.212 473.66 295.209 472.475V407.72C295.209 405.299 293.934 402.97 291.837 401.763L235.739 369.497C234.714 368.905 233.55 368.594 232.366 368.597ZM567.833 426.383C567.609 426.383 567.361 426.383 567.159 426.495L556.367 432.791C556.166 432.903 555.997 433.065 555.879 433.263C555.761 433.46 555.696 433.685 555.692 433.916V446.281C555.692 446.747 555.961 447.173 556.367 447.406L567.159 453.589C567.564 453.823 567.995 453.823 568.395 453.589L579.187 447.405C579.388 447.292 579.556 447.13 579.674 446.933C579.792 446.736 579.857 446.511 579.862 446.281V433.914C579.857 433.684 579.792 433.46 579.674 433.263C579.556 433.066 579.388 432.903 579.187 432.791L568.395 426.494C568.195 426.377 568.058 426.383 567.833 426.383Z" fill="#83CD29"/>
</svg>
