<svg width="800" height="800" viewBox="0 0 800 800" fill="none" xmlns="http://www.w3.org/2000/svg">
<path d="M332.912 181.096C358.713 154.213 394.633 137.539 434.359 137.539C487.169 137.539 533.242 166.986 557.779 210.701C579.101 201.175 602.702 195.875 627.533 195.875C722.78 195.875 800 273.767 800 369.847C800 465.937 722.78 543.829 627.533 543.829C616.125 543.836 604.744 542.702 593.562 540.444C571.955 578.985 530.781 605.026 483.522 605.026C463.738 605.026 445.026 600.457 428.365 592.331C406.462 643.852 355.431 679.977 295.954 679.977C234.017 679.977 181.231 640.786 160.969 585.823C152.115 587.704 142.941 588.684 133.527 588.684C59.7838 588.685 0 528.286 0 453.767C0 403.83 26.8605 360.228 66.7692 336.901C58.553 317.996 53.9828 297.129 53.9828 275.191C53.9828 189.494 123.556 120.024 209.368 120.024C259.749 120.024 304.525 143.978 332.912 181.096Z" fill="#00A1E0"/>
<path d="M115.873 410.402C115.371 411.713 116.055 411.987 116.215 412.215C117.719 413.308 119.246 414.096 120.785 414.973C128.944 419.302 136.649 420.567 144.706 420.567C161.116 420.567 171.303 411.838 171.303 397.787V397.513C171.303 384.521 159.805 379.804 149.013 376.396L147.612 375.941C139.475 373.296 132.455 371.018 132.455 365.662V365.377C132.455 360.796 136.557 357.422 142.917 357.422C149.982 357.422 158.37 359.77 163.771 362.756C163.771 362.756 165.355 363.781 165.936 362.243C166.255 361.422 168.991 354.06 169.276 353.263C169.583 352.396 169.036 351.758 168.478 351.416C162.313 347.667 153.788 345.103 144.968 345.103L143.327 345.114C128.307 345.114 117.823 354.185 117.823 367.188V367.462C117.823 381.171 129.39 385.615 140.228 388.715L141.972 389.251C149.869 391.678 156.673 393.763 156.673 399.325V399.599C156.673 404.681 152.251 408.464 145.117 408.464C142.348 408.464 133.516 408.408 123.978 402.378C122.826 401.706 122.154 401.216 121.265 400.681C120.798 400.384 119.624 399.871 119.112 401.421L115.873 410.402ZM356.111 410.402C355.61 411.713 356.294 411.987 356.453 412.215C357.957 413.308 359.485 414.096 361.023 414.973C369.182 419.302 376.887 420.567 384.943 420.567C401.353 420.567 411.542 411.838 411.542 397.787V397.513C411.542 384.521 400.043 379.804 389.251 376.396L387.849 375.941C379.713 373.296 372.692 371.018 372.692 365.662V365.377C372.692 360.796 376.794 357.422 383.154 357.422C390.219 357.422 398.607 359.77 404.009 362.756C404.009 362.756 405.593 363.781 406.173 362.243C406.492 361.422 409.228 354.06 409.513 353.263C409.821 352.396 409.273 351.758 408.715 351.416C402.55 347.667 394.025 345.103 385.205 345.103L383.564 345.114C368.544 345.114 358.06 354.185 358.06 367.188V367.462C358.06 381.171 369.626 385.615 380.464 388.715L382.208 389.251C390.105 391.678 396.921 393.763 396.921 399.325V399.599C396.921 404.681 392.488 408.464 385.353 408.464C382.585 408.464 373.753 408.408 364.215 402.378C363.063 401.706 362.38 401.239 361.514 400.681C361.217 400.487 359.827 399.951 359.348 401.421L356.111 410.402ZM520.116 382.879C520.116 390.822 518.635 397.078 515.717 401.5C512.834 405.876 508.469 408.007 502.385 408.007C496.288 408.007 491.946 405.887 489.108 401.5C486.236 397.09 484.778 390.822 484.778 382.879C484.778 374.948 486.236 368.702 489.108 364.326C491.946 359.996 496.288 357.887 502.385 357.887C508.47 357.887 512.834 359.996 515.729 364.326C518.635 368.701 520.116 374.947 520.116 382.879ZM533.815 368.155C532.469 363.608 530.373 359.596 527.581 356.258C524.789 352.907 521.256 350.218 517.062 348.258C512.879 346.309 507.934 345.318 502.385 345.318C496.823 345.318 491.877 346.309 487.695 348.258C483.501 350.218 479.969 352.908 477.165 356.258C474.385 359.608 472.287 363.62 470.932 368.155C469.598 372.679 468.926 377.625 468.926 382.879C468.926 388.133 469.598 393.09 470.932 397.602C472.287 402.138 474.374 406.15 477.177 409.5C479.969 412.85 483.513 415.528 487.696 417.431C491.889 419.334 496.823 420.303 502.386 420.303C507.935 420.303 512.87 419.334 517.063 417.431C521.245 415.528 524.789 412.85 527.582 409.5C530.374 406.161 532.47 402.149 533.815 397.602C535.161 393.079 535.833 388.121 535.833 382.879C535.833 377.637 535.159 372.679 533.815 368.155ZM646.301 405.886C645.845 404.553 644.557 405.054 644.557 405.054C642.563 405.818 640.443 406.524 638.187 406.877C635.896 407.23 633.377 407.413 630.676 407.413C624.045 407.413 618.78 405.441 615.008 401.544C611.224 397.646 609.104 391.345 609.127 382.82C609.15 375.06 611.018 369.224 614.381 364.781C617.72 360.36 622.803 358.091 629.583 358.091C635.236 358.091 639.544 358.74 644.055 360.165C644.055 360.165 645.138 360.632 645.65 359.219C646.847 355.891 647.736 353.509 649.012 349.851C649.377 348.814 648.488 348.37 648.169 348.244C646.391 347.549 642.197 346.422 639.029 345.943C636.066 345.487 632.602 345.248 628.75 345.248C622.994 345.248 617.867 346.228 613.48 348.188C609.104 350.137 605.389 352.826 602.449 356.177C599.508 359.527 597.275 363.538 595.782 368.074C594.301 372.597 593.549 377.566 593.549 382.82C593.549 394.182 596.614 403.367 602.666 410.091C608.728 416.838 617.834 420.267 629.709 420.267C636.729 420.267 643.931 418.844 649.105 416.803C649.105 416.803 650.097 416.324 649.663 415.174L646.301 405.886ZM670.268 375.27C670.917 370.86 672.137 367.19 674.017 364.33C676.855 359.988 681.185 357.606 687.271 357.606C693.357 357.606 697.38 359.999 700.263 364.33C702.177 367.19 703.009 371.02 703.34 375.27H670.268ZM716.388 365.571C715.226 361.184 712.342 356.75 710.45 354.722C707.464 351.508 704.548 349.264 701.653 348.01C697.869 346.391 693.333 345.32 688.365 345.32C682.576 345.32 677.322 346.289 673.06 348.295C668.787 350.301 665.198 353.036 662.382 356.444C659.567 359.839 657.448 363.885 656.102 368.477C654.747 373.047 654.063 378.028 654.063 383.28C654.063 388.625 654.77 393.606 656.171 398.084C657.585 402.597 659.841 406.574 662.895 409.867C665.937 413.184 669.858 415.782 674.553 417.593C679.214 419.394 684.878 420.328 691.385 420.316C704.776 420.271 711.829 417.285 714.736 415.678C715.249 415.394 715.739 414.892 715.122 413.457L712.091 404.966C711.636 403.701 710.348 404.168 710.348 404.168C707.031 405.399 702.314 407.61 691.316 407.588C684.126 407.576 678.792 405.457 675.452 402.14C672.022 398.744 670.347 393.752 670.051 386.71L716.421 386.756C716.421 386.756 717.64 386.733 717.767 385.547C717.812 385.047 719.363 376.022 716.388 365.571ZM298.908 375.27C299.569 370.86 300.778 367.19 302.658 364.33C305.495 359.988 309.826 357.606 315.911 357.606C321.996 357.606 326.02 359.999 328.914 364.33C330.816 367.19 331.648 371.02 331.979 375.27H298.908ZM345.016 365.571C343.854 361.184 340.983 356.75 339.091 354.722C336.105 351.508 333.188 349.264 330.293 348.01C326.51 346.391 321.975 345.32 317.006 345.32C311.228 345.32 305.963 346.289 301.701 348.295C297.428 350.301 293.838 353.036 291.023 356.444C288.208 359.839 286.088 363.885 284.744 368.477C283.399 373.047 282.704 378.028 282.704 383.28C282.704 388.625 283.411 393.606 284.813 398.084C286.226 402.597 288.483 406.574 291.536 409.867C294.579 413.184 298.499 415.782 303.194 417.593C307.856 419.394 313.519 420.328 320.026 420.316C333.417 420.271 340.471 417.285 343.377 415.678C343.89 415.394 344.38 414.892 343.765 413.457L340.745 404.966C340.277 403.701 338.99 404.168 338.99 404.168C335.674 405.399 330.967 407.61 319.947 407.588C312.768 407.576 307.435 405.457 304.095 402.14C300.665 398.744 298.99 393.752 298.693 386.71L345.063 386.756C345.063 386.756 346.282 386.733 346.408 385.547C346.452 385.047 348.002 376.022 345.016 365.571ZM198.679 405.632C196.867 404.184 196.617 403.82 196.002 402.885C195.089 401.461 194.623 399.432 194.623 396.857C194.623 392.777 195.967 389.848 198.76 387.877C198.726 387.889 202.748 384.401 212.207 384.526C218.85 384.617 224.787 385.598 224.787 385.598V406.68H224.798C224.798 406.68 218.907 407.945 212.275 408.344C202.839 408.914 198.645 405.621 198.679 405.632ZM217.129 373.051C215.249 372.914 212.81 372.834 209.892 372.834C205.916 372.834 202.075 373.335 198.474 374.304C194.85 375.272 191.591 376.789 188.787 378.793C185.988 380.791 183.687 383.408 182.064 386.44C180.423 389.494 179.591 393.095 179.591 397.13C179.591 401.232 180.297 404.799 181.711 407.717C183.124 410.646 185.164 413.084 187.761 414.965C190.337 416.846 193.517 418.224 197.208 419.056C200.844 419.888 204.969 420.309 209.482 420.309C214.234 420.309 218.975 419.922 223.568 419.135C228.115 418.36 233.698 417.232 235.248 416.879C236.335 416.617 237.417 416.34 238.496 416.047C239.648 415.763 239.556 414.531 239.556 414.531L239.533 372.127C239.533 362.828 237.049 355.933 232.16 351.66C227.294 347.398 220.126 345.243 210.861 345.243C207.385 345.243 201.79 345.722 198.439 346.394C198.439 346.394 188.308 348.355 184.137 351.614C184.137 351.614 183.226 352.184 183.727 353.461L187.009 362.281C187.419 363.421 188.525 363.033 188.525 363.033C188.525 363.033 188.878 362.896 189.289 362.657C198.213 357.803 209.494 357.951 209.494 357.951C214.509 357.951 218.361 358.953 220.959 360.947C223.488 362.884 224.776 365.813 224.776 371.99V373.95C220.787 373.381 217.129 373.051 217.129 373.051ZM591.126 349.158C591.479 348.109 590.739 347.608 590.43 347.494C589.645 347.186 585.702 346.354 582.659 346.161C576.836 345.807 573.6 346.788 570.704 348.086C567.833 349.385 564.642 351.482 562.864 353.864V348.223C562.864 347.437 562.305 346.81 561.53 346.81H549.644C548.87 346.81 548.311 347.436 548.311 348.223V417.385C548.311 418.161 548.95 418.799 549.724 418.799H561.907C562.28 418.797 562.637 418.647 562.9 418.382C563.162 418.117 563.309 417.758 563.308 417.385V382.833C563.308 378.195 563.821 373.569 564.847 370.663C565.85 367.79 567.218 365.489 568.904 363.836C570.602 362.195 572.528 361.044 574.636 360.395C576.79 359.733 579.171 359.517 580.858 359.517C583.286 359.517 585.952 360.143 585.952 360.143C586.84 360.246 587.343 359.699 587.638 358.89C588.436 356.77 590.693 350.422 591.126 349.158Z" fill="white"/>
<path d="M476.776 317.104C475.295 316.648 473.95 316.34 472.195 316.01C470.416 315.691 468.297 315.531 465.893 315.531C457.505 315.531 450.895 317.901 446.257 322.573C441.642 327.223 438.507 334.3 436.935 343.611L436.364 346.744H425.835C425.835 346.744 424.559 346.699 424.285 348.09L422.565 357.742C422.439 358.654 422.839 359.234 424.069 359.234H434.314L423.921 417.263C423.111 421.936 422.177 425.776 421.14 428.693C420.125 431.565 419.134 433.719 417.904 435.291C416.718 436.796 415.601 437.912 413.663 438.562C412.068 439.098 410.222 439.348 408.205 439.348C407.088 439.348 405.596 439.165 404.49 438.937C403.396 438.72 402.815 438.482 401.983 438.128C401.983 438.128 400.786 437.673 400.308 438.869C399.931 439.861 397.196 447.37 396.866 448.294C396.547 449.216 397.003 449.935 397.583 450.151C398.951 450.63 399.965 450.949 401.823 451.393C404.399 451.998 406.575 452.031 408.614 452.031C412.876 452.031 416.774 451.427 419.999 450.265C423.236 449.092 426.061 447.051 428.569 444.294C431.27 441.308 432.967 438.185 434.587 433.912C436.193 429.695 437.573 424.453 438.666 418.346L449.116 359.234H464.387C464.387 359.234 465.674 359.28 465.937 357.879L467.668 348.238C467.783 347.315 467.395 346.745 466.153 346.745H451.327C451.407 346.415 452.078 341.195 453.777 336.284C454.507 334.199 455.874 332.501 457.025 331.338C458.165 330.198 459.476 329.389 460.912 328.922C462.382 328.443 464.058 328.215 465.892 328.215C467.283 328.215 468.661 328.375 469.698 328.591C471.134 328.899 471.692 329.059 472.069 329.173C473.585 329.629 473.789 329.184 474.086 328.456L477.63 318.724C477.995 317.673 477.095 317.228 476.776 317.104ZM269.625 417.389C269.625 418.164 269.067 418.791 268.291 418.791H255.995C255.22 418.791 254.673 418.164 254.673 417.389V318.426C254.673 317.651 255.22 317.024 255.995 317.024H268.291C269.067 317.024 269.625 317.651 269.625 318.426V417.389Z" fill="white"/>
</svg>
