<svg width="800" height="400" viewBox="0 0 800 400" fill="none" xmlns="http://www.w3.org/2000/svg">
<path d="M50.02 116.133H217.753V283.866H50.02V116.133Z" fill="#F26625"/>
<path d="M128.3 211.18L99.2334 156.947H112.653L129.427 191.053C129.427 191.613 129.987 192.173 130.547 192.733C131.107 193.293 131.107 193.853 131.667 194.967L132.227 195.527V196.087C132.787 197.207 132.787 197.767 133.347 198.887C133.907 199.447 133.907 200.567 134.467 201.12C135.027 199.44 136.147 198.32 136.7 196.087C137.26 194.407 138.38 192.733 139.5 191.053L156.273 156.947H168.573L139.507 211.747V246.413H128.327L128.3 211.18Z" fill="white"/>
<path d="M284.9 175.1C291.967 175.1 298.1 176.986 302.82 180.766L298.107 186.433C293.86 183.606 289.62 181.72 284.44 181.72C276.42 181.72 270.293 185.966 266.993 193.986C265.107 198.7 264.167 204.833 264.167 212.853C264.167 218.986 265.1 224.173 266.527 227.946C270.3 236.906 276.433 241.146 285.86 241.146C291.047 241.146 295.767 239.733 300.007 236.433L304.72 242.566C298.587 246.34 292.053 248.233 284.92 248.233C276.433 248.233 269.36 244.933 263.7 237.86C258.033 231.193 255.68 222.3 255.68 211.46C255.68 200.62 258.507 192.126 264.167 185.06C269.353 178.926 276.433 175.153 284.92 175.153L284.9 175.1ZM311.78 221.786C311.78 213.3 313.667 206.693 317.913 201.986C322.16 197.28 327.347 194.44 333.947 194.44C341.493 194.44 347.613 197.266 351.867 203.4C355.167 208.113 356.58 214.72 356.58 222.733C356.58 232.166 353.753 239.713 348.56 244.426C344.655 247.857 339.61 249.706 334.413 249.613C327.347 249.613 322.147 247.253 317.907 242.066C313.66 237.353 311.78 230.28 311.78 221.786ZM344.793 208.12C342.433 203.873 339.127 201.453 333.947 201.453C328.767 201.453 325.46 203.34 323.1 207.12C321.213 209.946 320.74 214.666 320.74 220.786C320.74 228.806 321.673 234.453 324.04 237.766C326.407 241.08 329.707 242.953 334.413 242.953C340.08 242.953 343.847 240.126 345.733 234.933C346.667 232.106 347.147 228.266 347.147 223.613C347.613 216.546 346.68 211.346 344.787 208.053L344.793 208.12ZM371.66 209.053C371.66 203.866 371.193 199.62 369.773 196.386L377.793 194.5C379.207 196.86 379.68 199.686 379.68 202.046V202.513C381.567 200.626 383.453 198.74 386.347 197.326C389.647 195.44 392.48 194.5 395.307 194.5C399.553 194.5 403.327 196.386 405.68 199.686C406.147 200.62 407.093 202.046 407.567 202.986C413.233 197.32 418.413 194.5 424.073 194.5C427.847 194.5 431.14 195.913 433.507 198.273C435.867 201.1 437.28 204.406 437.28 208.18V247.313H428.667V208.646C428.667 203.46 426.307 201.1 422 201.1C419.64 201.1 416.813 202.033 414.453 203.926C413.52 204.86 411.627 206.286 409.267 208.173L408.333 209.106V247.306H399.373V210.466C399.373 207.166 398.907 204.8 397.96 203.8C396.547 202.386 395.133 201.913 392.773 201.913C389 201.913 384.753 204.273 379.573 208.98V247.646H371.667L371.66 209.053ZM451.84 173.213L460.327 171.326C461.26 175.1 461.74 179.346 461.74 184.526V201.973C466.453 197.26 471.647 194.906 476.833 194.906C482.967 194.906 488.153 197.266 491.453 201.973C495.227 206.686 497.12 213.293 497.12 221.306C497.12 229.793 495.233 236.4 491.453 241.586C487.673 246.773 482.493 249.133 476.36 249.133C473.571 249.185 470.813 248.537 468.34 247.246C465.513 245.833 463.627 244.42 462.207 242.533L460.793 248.2H452.773C453.707 245.84 454.187 241.533 454.187 235V185.466C453.72 179.8 453.253 175.56 451.827 173.2L451.84 173.213ZM465.507 205.213C464.093 206.146 462.68 207.573 461.733 208.986V236C465.033 240.246 469.28 242.133 474.4 242.133C478.647 242.133 481.947 240.72 483.833 237.42C486.193 233.646 487.607 228.46 487.607 220.913C487.607 214.246 486.673 209.593 484.307 206.766C482.42 203.94 479.12 202.52 474.4 202.52C471.573 202.053 468.267 202.986 465.44 205.346L465.507 205.213ZM509.373 179.88C509.373 177.993 509.84 176.58 511.26 175.166C512.68 173.753 514.087 173.28 515.973 173.28C517.86 173.28 519.273 173.746 520.687 175.166C522.1 176.586 522.573 177.993 522.573 179.88C522.573 181.766 522.107 183.18 520.687 184.593C519.267 186.006 517.86 186.48 515.973 186.48C514.087 186.48 512.673 186.013 511.26 184.593C509.847 183.173 509.373 181.766 509.373 179.88ZM511.333 247.733V195.866L519.82 194.453V247.746L511.333 247.733ZM538.147 209.053C538.147 205.28 538.147 202.92 537.68 201.986C537.68 200.573 536.747 199.16 535.793 196.8L543.813 194.44C545.103 196.913 545.752 199.671 545.7 202.46C550.887 197.273 556.547 194.44 562.207 194.44C565.033 194.44 567.393 194.906 569.753 196.326C572.113 197.746 574 199.626 574.94 201.993C575.873 203.88 576.353 205.766 576.353 208.126V247.74H568.333V212.373C568.333 208.126 567.867 205.306 566.447 203.886C565.712 203.131 564.831 202.532 563.858 202.127C562.885 201.721 561.84 201.517 560.787 201.526C558.9 201.526 556.073 202.46 553.24 203.886C550.62 205.225 548.231 206.976 546.167 209.073V247.74H538.147V209.053ZM595.213 207.166L590.967 201.5C598.033 196.786 605.113 194.433 612.66 194.433C620.207 194.433 624.927 197.26 627.28 202.453C628.213 204.34 628.213 207.166 628.213 211.413V214.24L627.747 231.22V233.58C627.747 236.406 627.747 238.293 628.213 239.713C628.68 241.6 630.1 243.013 631.987 243.96L627.74 249.626C623.967 248.213 621.607 245.853 620.673 242.08C615.96 246.793 610.767 249.146 605.58 249.146C600.393 249.146 596.147 247.733 592.913 244.9C590.087 242.54 588.667 238.766 588.667 234.053C588.542 231.354 589.131 228.669 590.372 226.269C591.614 223.869 593.465 221.838 595.74 220.38C600.453 217.08 607.527 215.666 616.02 215.666H619.793V211.893C619.793 207.646 619.327 204.826 617.907 203.873C617.012 202.907 615.914 202.152 614.692 201.663C613.47 201.174 612.154 200.963 610.84 201.046C608.013 201.046 604.707 201.98 600.933 203.406L595.267 207.18L595.213 207.166ZM620.213 234.993L620.68 221.326H616.433C608.887 221.326 604.167 222.74 601.34 225.573C599.453 227.46 598.513 230.286 598.513 234.06C598.513 240.193 601.34 243.493 607.473 243.493C610.15 243.34 612.738 242.472 614.965 240.979C617.193 239.487 618.98 237.424 620.14 235.006L620.213 234.993ZM655.107 195.846H668.307L665.947 202.513H655.1V236C655.1 238.826 655.567 240.713 656.513 242.133C657.447 243.066 659.34 244.02 661.7 244.02C663.587 244.02 665.473 243.553 666.887 243.086L667.82 248.273C664.993 249.686 662.153 250.16 658.86 250.16C650.84 250.16 647.073 246.386 647.073 238.373V202.533H640V195.866H646.667V194.933C646.667 194 647.133 190.22 647.6 184.086V182.666L656.087 180.78C655.153 186.446 655.153 191.626 655.153 195.873L655.107 195.846ZM676.8 221.78C676.8 213.293 678.687 206.686 682.933 201.98C686.707 197.266 692.367 194.433 698.967 194.433C706.513 194.433 712.633 197.26 716.887 203.393C720.187 208.106 721.6 214.713 721.6 222.726C721.6 232.16 718.773 239.706 713.58 244.42C709.675 247.85 704.63 249.7 699.433 249.606C692.367 249.606 687.167 247.246 682.927 242.06C679.153 237.346 676.8 230.273 676.8 221.78ZM710.287 208.113C707.927 203.866 704.62 201.446 699.44 201.446C694.26 201.446 690.953 203.333 688.593 207.113C686.707 209.94 686.233 214.66 686.233 220.78C686.233 228.8 687.167 234.446 689.533 237.76C691.9 241.073 695.2 242.946 699.907 242.946C705.573 242.946 709.34 240.12 711.227 234.926C712.16 232.1 712.64 228.26 712.64 223.606C712.64 216.54 711.707 211.34 710.28 208.046L710.287 208.113ZM737.153 208.1C737.153 203.386 736.687 199.613 735.267 196.78L743.287 194.42C744.577 196.893 745.225 199.651 745.173 202.44V203.373C749.42 197.706 754.133 194.886 759.793 194.886C760.727 194.886 761.68 194.886 762.62 195.353L759.32 204.313C758.387 203.846 757.433 203.846 756.96 203.846C755.073 203.846 752.713 204.313 750.827 205.733C748.94 207.153 747.053 208.56 746.113 210.446C745.492 212.269 745.175 214.181 745.173 216.106V248.64H737.153V208.1Z" fill="#F26625"/>
</svg>
