<svg width="800" height="800" viewBox="0 0 800 800" fill="none" xmlns="http://www.w3.org/2000/svg">
<path d="M378.522 348.14C387.72 348.14 396.26 349.673 404.139 352.732C412.006 355.792 418.75 360.532 424.377 366.952C429.998 373.383 434.395 381.542 437.569 391.429C440.737 401.332 442.321 412.999 442.321 426.463C442.321 453.387 435.01 474.45 420.393 489.642C405.765 504.84 385.065 512.439 358.273 512.439C353.775 512.439 349.177 512.132 344.472 511.519C339.762 510.906 335.678 510.087 332.202 509.072V580.97C329.749 581.371 327.142 581.678 324.382 581.884C321.622 582.084 319.11 582.19 316.864 582.19C314.612 582.19 312.112 582.084 309.352 581.884C306.592 581.678 304.085 581.371 301.839 580.97V351.808C303.879 351.406 305.977 351.1 308.123 350.894C310.273 350.692 312.467 350.587 314.719 350.587C316.759 350.587 318.909 350.692 321.16 350.894C323.407 351.1 325.558 351.406 327.603 351.808C327.805 352.225 328.064 353.493 328.366 355.638C328.673 357.778 328.981 360.072 329.288 362.519C329.596 364.966 329.902 367.317 330.21 369.558C330.517 371.803 330.666 373.23 330.666 373.843C332.711 370.577 335.164 367.417 338.03 364.358C340.891 361.298 344.323 358.54 348.307 356.098C352.292 353.647 356.79 351.713 361.807 350.286C366.809 348.859 372.382 348.14 378.522 348.14ZM206.132 348.14C226.578 348.14 242.121 352.786 252.755 362.06C263.388 371.344 268.707 386.183 268.707 406.574V504.787C261.55 506.421 252.861 508.101 242.636 509.834C232.406 511.562 221.974 512.434 211.345 512.434C201.322 512.434 192.278 511.519 184.198 509.68C176.119 507.842 169.269 504.893 163.648 500.803C158.021 496.734 153.677 491.524 150.609 485.204C147.542 478.884 146.01 471.238 146.01 462.254C146.01 453.493 147.796 445.789 151.377 439.157C154.954 432.536 159.812 427.025 165.947 422.638C172.082 418.257 179.139 414.986 187.112 412.851C195.092 410.706 203.473 409.634 212.268 409.634C218.811 409.634 224.178 409.793 228.368 410.093C232.559 410.406 236.087 410.76 238.954 411.166V405.353C238.954 393.316 235.886 384.956 229.752 380.264C223.616 375.577 214.721 373.23 203.065 373.23C195.902 373.23 189.211 373.796 182.975 374.911C176.734 376.036 170.646 377.511 164.723 379.344C160.834 372.612 158.895 364.564 158.895 355.174C165.841 352.934 173.507 351.2 181.899 349.974C190.281 348.748 198.356 348.14 206.132 348.14ZM127.915 351.806L129.446 355.79L46.0132 484.594H124.233C124.842 488.679 125.155 492.853 125.155 497.133C125.155 501.224 124.842 505.091 124.233 508.769H1.53643L0 504.484L82.8239 375.981H9.81726C9.20261 372.309 8.89533 368.235 8.89533 363.743C8.89533 359.462 9.20261 355.478 9.81726 351.806H127.915ZM215.336 433.191C202.652 433.191 192.988 435.542 186.35 440.23C179.695 444.927 176.379 452.066 176.379 461.646C176.379 467.765 177.497 472.564 179.754 476.025C182.001 479.497 184.813 482.144 188.189 483.983C191.563 485.816 195.293 486.937 199.383 487.349C203.473 487.761 207.361 487.962 211.039 487.962C215.743 487.962 220.601 487.709 225.608 487.191C230.62 486.683 235.065 485.923 238.954 484.902V435.03C235.886 434.622 232.003 434.221 227.298 433.809C222.594 433.403 218.605 433.191 215.336 433.191ZM371.773 374.451C366.66 374.451 361.748 375.37 357.049 377.209C352.34 379.037 348.155 381.79 344.472 385.462C340.79 389.135 337.829 393.781 335.583 399.387C333.325 405.005 332.202 411.673 332.202 419.43V483.063C336.08 484.496 340.074 485.515 344.165 486.123C348.255 486.731 353.569 487.042 360.117 487.042C367.481 487.042 374.226 485.869 380.361 483.523C386.496 481.187 391.762 477.557 396.155 472.659C400.551 467.765 404.027 461.599 406.586 454.147C409.139 446.707 410.422 437.888 410.422 427.689C410.422 411.372 407.402 398.42 401.373 388.829C395.338 379.248 385.468 374.451 371.773 374.451ZM617.169 348.137C628.004 348.137 637.513 349.976 645.694 353.649C653.873 357.321 660.724 362.367 666.249 368.793C671.765 375.219 675.956 382.865 678.821 391.737C681.683 400.61 683.119 410.243 683.119 420.647C683.119 423.507 683.013 426.513 682.806 429.674C682.604 432.843 682.398 435.539 682.197 437.779H575.14C575.553 454.916 579.998 467.461 588.486 475.414C596.973 483.367 609.497 487.351 626.064 487.351C640.586 487.351 654.382 484.798 667.473 479.699C669.111 482.759 670.436 486.479 671.463 490.865C672.486 495.256 673.095 499.584 673.301 503.87C666.552 506.728 659.135 508.863 651.066 510.295C642.981 511.716 634.038 512.436 624.226 512.436C609.905 512.436 597.635 510.448 587.416 506.469C577.19 502.49 568.751 496.884 562.106 489.644C555.463 482.405 550.604 473.834 547.537 463.941C544.47 454.049 542.934 443.19 542.934 431.354C542.934 419.733 544.416 408.874 547.384 398.771C550.345 388.678 554.901 379.912 561.031 372.46C567.167 365.02 574.886 359.107 584.189 354.716C593.492 350.33 604.486 348.137 617.169 348.137ZM509.812 351.806V508.769C507.554 509.171 505.054 509.472 502.294 509.678C499.534 509.879 497.022 509.985 494.776 509.985C492.731 509.985 490.326 509.879 487.57 509.678C484.805 509.472 482.299 509.171 480.052 508.769V375.675H460.111C459.703 374.042 459.396 372.156 459.195 370.016C458.987 367.876 458.887 365.783 458.887 363.743C458.887 361.709 458.987 359.611 459.195 357.471C459.396 355.331 459.703 353.444 460.111 351.806H509.812ZM653.058 415.146C653.058 409.435 652.289 403.981 650.758 398.771C649.222 393.571 646.97 389.037 644.009 385.159C641.036 381.285 637.259 378.173 632.655 375.832C628.056 373.486 622.583 372.308 616.247 372.308C603.771 372.308 594.213 376.085 587.563 383.632C580.92 391.177 576.883 401.683 575.447 415.146H653.058ZM729.452 350.587C731.699 350.587 733.945 350.693 736.201 350.894C738.448 351.1 740.493 351.406 742.337 351.808C742.946 354.867 743.561 358.905 744.175 363.894C744.785 368.897 745.097 373.125 745.097 376.596C749.389 369.664 755.068 363.64 762.12 358.54C769.176 353.446 778.22 350.894 789.267 350.894C790.898 350.894 792.588 350.941 794.326 351.047C796.058 351.152 797.552 351.306 798.776 351.501C799.179 353.34 799.491 355.285 799.693 357.319C799.9 359.359 800 361.499 800 363.745C800 366.192 799.846 368.744 799.545 371.391C799.237 374.044 798.877 376.596 798.469 379.038C796.827 378.636 795.142 378.43 793.404 378.43H789.267C783.746 378.43 778.48 379.197 773.468 380.724C768.45 382.256 763.957 384.956 759.968 388.83C755.984 392.708 752.811 398.013 750.464 404.746C748.111 411.473 746.935 420.144 746.935 430.745V508.766C744.683 509.168 742.178 509.474 739.418 509.68C736.663 509.882 734.151 509.987 731.91 509.987C729.653 509.987 727.152 509.882 724.392 509.68C721.627 509.474 719.02 509.168 716.567 508.766V351.808C718.814 351.406 720.964 351.1 723.009 350.894C725.049 350.693 727.201 350.587 729.452 350.587ZM488.579 217.188C491.455 217.193 494.284 217.436 497.035 217.896V247.54L518.051 226.578C520.372 228.226 522.544 230.06 524.552 232.063C526.56 234.065 528.404 236.237 530.057 238.552L509.039 259.514H538.761C539.223 262.257 539.466 265.068 539.466 267.943V268.011C539.466 270.886 539.223 273.703 538.761 276.445H509.034L530.057 297.402C528.404 299.717 526.56 301.889 524.558 303.892C522.544 305.894 520.372 307.733 518.057 309.377L497.035 288.414V318.059C494.289 318.518 491.46 318.761 488.584 318.767H488.51C485.633 318.761 482.815 318.518 480.065 318.059V288.414L459.048 309.377C454.406 306.084 450.348 302.032 447.042 297.402L468.06 276.445H438.338C437.871 273.697 437.628 270.87 437.628 267.996V267.959C437.628 267.149 437.684 266.126 437.765 265.075L437.822 264.372C438.032 261.911 438.338 259.514 438.338 259.514H468.06L447.042 238.552C448.69 236.237 450.529 234.071 452.536 232.073C454.55 230.06 456.727 228.226 459.048 226.578L480.065 247.54V217.896C482.815 217.436 485.639 217.193 488.52 217.188H488.579ZM488.574 255.282H488.525C484.743 255.282 481.119 255.974 477.771 257.232C476.515 260.566 475.821 264.18 475.816 267.953V268.001C475.821 271.774 476.515 275.388 477.776 278.723C481.12 279.98 484.743 280.673 488.525 280.673H488.574C492.357 280.673 495.98 279.98 499.323 278.723C500.584 275.383 501.278 271.774 501.278 268.001V267.953C501.278 264.18 500.584 260.566 499.323 257.232C495.98 255.974 492.357 255.282 488.574 255.282Z" fill="#FF4A00"/>
</svg>
